<svg viewBox="0 0 800 800" xmlns="http://www.w3.org/2000/svg"><path d="M517.8697530404073,184.6455488430043 L518.0096480227706,141.03773637511972 M517.8697530404073,184.6455488430043 L-10.18271740906465,486.52949646234634 M518.0096480227706,141.03773637511972 L-10.689217293521665,442.5473656783921 M-10.18271740906465,486.52949646234634 L-10.689217293521665,442.5473656783921 M581.4312099825593,182.36735991300918 L581.6478589266611,138.7624195335934 M581.4312099825593,182.36735991300918 L574.0876435603948,179.70012589878934 M574.0876435603948,179.70012589878934 L566.0313634785937,177.82534292586797 M566.0313634785937,177.82534292586797 L557.5235920867015,176.8035065437297 M557.5235920867015,176.8035065437297 L548.8399933414212,176.6676003797515 M548.8399933414212,176.6676003797515 L540.261853215764,177.42198324561963 M540.261853215764,177.42198324561963 L532.06714456279,179.04233651073406 M532.06714456279,179.04233651073406 L524.5214587753288,181.47638250725947 M524.5214587753288,181.47638250725947 L517.8697530404073,184.6455488430043 M581.6478589266611,138.7624195335934 L574.2953912833498,136.09854897259686 M574.2953912833498,136.09854897259686 L566.229360961185,134.22613073185494 M566.229360961185,134.22613073185494 L557.7113053312993,133.2055834311363 M557.7113053312993,133.2055834311363 L549.0172201370192,133.0698487281485 M549.0172201370192,133.0698487281485 L540.4287294722062,133.82327988657266 M540.4287294722062,133.82327988657266 L532.2241401070559,135.44158922369508 M532.2241401070559,135.44158922369508 L524.6693624446996,137.87256556615932 M524.6693624446996,137.87256556615932 L518.0096480227706,141.03773637511972 M517.8697530404073,184.6455488430043 L518.0355261730211,186.50491894103737 M518.0355261730211,186.50491894103737 L518.5358205262525,188.46548768580766 M518.5358205262525,188.46548768580766 L519.3455332291826,190.42901594920133 M519.3455332291826,190.42901594920133 L520.4240991354695,192.2971415594571 M520.4240991354695,192.2971415594571 L521.7174682258692,193.97626517024975 M521.7174682258692,193.97626517024975 L523.1608609363236,195.38225828183536 M523.1608609363236,195.38225828183536 L524.6819653901449,196.44464674469825 M477.1117245425369,223.66436067807965 L-3.254232358578463,498.52998458927 M524.6819653901449,196.44464674469825 L477.1117245425369,223.66436067807965 M-10.18271740906465,486.52949646234634 L-9.990853280050032,488.4073028687415 M-9.990853280050032,488.4073028687415 L-9.46583405538928,490.3920779903019 M-9.46583405538928,490.3920779903019 L-8.634001329691841,492.3843705798649 M-8.634001329691841,492.3843705798649 L-7.5370279096067065,494.2843790301209 M-7.5370279096067065,494.2843790301209 L-6.229885150980692,495.99690788603107 M-6.229885150980692,495.99690788603107 L-4.778041769940273,497.4361563943819 M-4.778041769940273,497.4361563943819 L-3.254232358578463,498.52998458927 M518.0096480227706,141.03773637511972 L518.1869656860065,139.3683713465092 M518.1869656860065,139.3683713465092 L518.698738186398,137.9768467781684 M518.698738186398,137.9768467781684 L519.5193647586548,136.93296561955788 M519.5193647586548,136.93296561955788 L520.6077762057621,136.28914865471302 M520.6077762057621,136.28914865471302 L521.9094289936069,136.07774800879633 M521.9094289936069,136.07774800879633 L523.3590852624517,136.30946872899972 M523.3590852624517,136.30946872899972 L524.8840415640001,136.97275990829291 M524.8840415640001,136.97275990829291 L-3.933609454544694,438.5476587520489 M-10.689217293521665,442.5473656783921 L-10.538112919247624,440.866148151638 M-10.538112919247624,440.866148151638 L-10.051297349633899,439.47005973746576 M-10.051297349633899,439.47005973746576 L-9.253118858036146,438.42913390060096 M-9.253118858036146,438.42913390060096 L-8.183519424379995,437.7956461907492 M-8.183519424379995,437.7956461907492 L-6.896097688260397,437.60143335471054 M-6.896097688260397,437.60143335471054 L-5.455376223681583,437.8563415032999 M-5.455376223681583,437.8563415032999 L-3.933609454544694,438.5476587520489 M-10.18271740906465,486.52949646234634 L-16.156122410465343,490.64620889998656 M-16.156122410465343,490.64620889998656 L-20.709461918961495,495.3304587314799 M-20.709461918961495,495.3304587314799 L-23.68062723287727,500.41703802071953 M-23.68062723287727,500.41703802071953 L-24.96313935764357,505.7262739330375 M-24.96313935764357,505.7262739330375 L-24.51006986557519,511.07030633648566 M-24.51006986557519,511.07030633648566 L-22.335978119614765,516.2597128998838 M-22.335978119614765,516.2597128998838 L-18.516529630903847,521.1102269247998 M-18.516529630903847,521.1102269247998 L-13.186069300354802,525.4493612252195 M-10.689217293521665,442.5473656783921 L-16.670079186279224,446.6590595676148 M-16.670079186279224,446.6590595676148 L-21.229149810916113,451.33760179688056 M-21.229149810916113,451.33760179688056 L-24.204115492612516,456.41798664926984 M-24.204115492612516,456.41798664926984 L-25.488359618948948,461.7207607386539 M-25.488359618948948,461.7207607386539 L-25.03488876405231,467.0582928523889 M-25.03488876405231,467.0582928523889 L-22.85827280533897,472.241390936336 M-22.85827280533897,472.241390936336 L-19.034263336381287,477.08601177714974 M-19.034263336381287,477.08601177714974 L-13.697364408718954,481.41987691994194 M-13.186069300354802,525.4493612252195 L-13.697364408718954,481.41987691994194 M585.9918765377842,184.6455488430043 L586.2140626862438,141.03773637511972 M585.9918765377842,184.6455488430043 L581.4312099825593,182.36735991300918 M586.2140626862438,141.03773637511972 L581.6478589266611,138.7624195335934 M581.4312099825593,182.36735991300918 L581.2637904052249,184.23251579082722 M581.2637904052249,184.23251579082722 L580.787460751321,186.21035685599375 M580.787460751321,186.21035685599375 L580.026130930086,188.2017761809758 M580.026130930086,188.2017761809758 L579.0178983892934,190.1070350408932 M579.0178983892934,190.1070350408932 L577.8133323571402,191.83066948235114 M577.8133323571402,191.83066948235114 L576.4727464471785,193.28631529058654 M576.4727464471785,193.28631529058654 L575.0633124301874,194.40101613805123 M575.0633124301874,194.40101613805123 L567.562295281119,191.9117812621573 M567.562295281119,191.9117812621573 L558.7010293866314,190.3610226097211 M558.7010293866314,190.3610226097211 L549.4579319341132,190.05745253972378 M549.4579319341132,190.05745253972378 L540.3646484867015,191.0184974664387 M540.3646484867015,191.0184974664387 L531.9443803336474,193.1890642124555 M531.9443803336474,193.1890642124555 L524.6819653901449,196.44464674469825 M581.6478589266611,138.7624195335934 L581.49776408588,137.09906461036684 M581.49776408588,137.09906461036684 L581.0374210362216,135.72500706258506 M581.0374210362216,135.72500706258506 L580.2898669291685,134.70916950407593 M580.2898669291685,134.70916950407593 L579.2924687544739,134.1025869452031 M579.2924687544739,134.1025869452031 L578.0952524145816,133.9357418405391 M578.0952524145816,133.9357418405391 L576.7582021793814,134.21710283423272 M576.7582021793814,134.21710283423272 L575.3483835578866,134.9326402358583 M575.3483835578866,134.9326402358583 L567.834967818197,132.4476828860914 M567.834967818197,132.4476828860914 L558.9590797417775,130.8995896552069 M558.9590797417775,130.8995896552069 L549.7007508334702,130.59654140938238 M549.7007508334702,130.59654140938238 L540.5924995644654,131.55593439905346 M540.5924995644654,131.55593439905346 L532.1583854533725,133.72277079668964 M532.1583854533725,133.72277079668964 L524.8840415640001,136.97275990829291 M477.1117245425369,223.66436067807965 L467.23880216628515,230.063812676588 M467.23880216628515,230.063812676588 L458.82452411318746,237.1186234330984 M458.82452411318746,237.1186234330984 L451.9991278946071,244.72181343259126 M451.9991278946071,244.72181343259126 L446.8690690035958,252.75778701241072 M446.8690690035958,252.75778701241072 L443.51519020645344,261.10405274826417 M443.51519020645344,261.10405274826417 L441.99143858113376,269.6330315155126 M441.99143858113376,269.6330315155126 L442.3238274101003,278.2139869899732 M442.3238274101003,278.2139869899732 L444.5099345914788,286.7150038059032 M444.5099345914788,286.7150038059032 L448.518741680972,295.00501510309977 M448.518741680972,295.00501510309977 L454.29092443631544,302.95586081886063 M454.29092443631544,302.95586081886063 L461.7396859359258,310.444285008921 M461.7396859359258,310.444285008921 L470.751954505035,317.3538946440514 M470.751954505035,317.3538946440514 L481.18999507214187,323.57703728113177 M481.18999507214187,323.57703728113177 L492.8935064231615,329.0165536690103 M492.8935064231615,329.0165536690103 L505.6821068982585,333.5873397326284 M505.6821068982585,333.5873397326284 L519.3580721723469,337.21778164221513 M519.3580721723469,337.21778164221513 L533.7095050709814,339.85090606456083 M533.7095050709814,339.85090606456083 L548.5136792237845,341.4453488957814 M548.5136792237845,341.4453488957814 L563.5405820194242,341.9760511269959 M563.5405820194242,341.9760511269959 L578.5566252751571,341.4346654951623 M578.5566252751571,341.4346654951623 L593.3283750499688,339.8297131908665 M593.3283750499688,339.8297131908665 L607.6263424523778,337.18641647339115 M607.6263424523778,337.18641647339115 L621.2286352535492,333.5462961291759 M621.2286352535492,333.5462961291759 L633.9245140430546,328.96646406580896 M633.9245140430546,328.96646406580896 L645.5177177896494,323.51869424410745 M645.5177177896494,323.51869424410745 L655.8295771390465,317.2882037008453 M655.8295771390465,317.2882037008453 L664.7017707157294,310.3722803654352 M664.7017707157294,310.3722803654352 L671.9987842797676,302.8786516549346 M671.9987842797676,302.8786516549346 L677.6098559025125,294.92380513128467 M677.6098559025125,294.92380513128467 L681.4507023470437,286.63104724280555 M681.4507023470437,286.63104724280555 L683.4646269210458,278.12858083467955 M683.4646269210458,278.12858083467955 L683.6232413547625,269.54749520787925 M683.6232413547625,269.54749520787925 L681.9267710547833,261.0197080097894 M681.9267710547833,261.0197080097894 L678.4039382723398,252.67590993309466 M803.2232305589325,323.4082668283745 L678.4039382723398,252.67590993309466 M805.1303615766209,324.55426198044466 L803.2232305589325,323.4082668283745 M804.1489059948973,355.0978555822153 L809.3049829479423,351.3536585214028 M809.3049829479423,351.3536585214028 L812.9334483789205,347.0537840124895 M812.9334483789205,347.0537840124895 L814.8674183535516,342.39765352719166 M814.8674183535516,342.39765352719166 L815.0187839052114,337.600889310058 M815.0187839052114,337.600889310058 L813.3819511056021,332.88529451508816 M813.3819511056021,332.88529451508816 L810.0339070238384,328.4685468071848 M810.0339070238384,328.4685468071848 L805.1303615766209,324.55426198044466 M276.21221403193096,662.6703996991671 L804.1489059948973,355.0978555822153 M224.4621442749366,664.8236207200491 L232.11411250325742,667.4477035275347 M232.11411250325742,667.4477035275347 L241.18494989365377,669.0832272423283 M241.18494989365377,669.0832272423283 L250.67288004411458,669.4034585906177 M250.67288004411458,669.4034585906177 L260.0281723893362,668.3897435962456 M260.0281723893362,668.3897435962456 L268.7087836574953,666.101040136761 M268.7087836574953,666.101040136761 L276.21221403193096,662.6703996991671 M220.27891222618192,662.6703996991671 L224.4621442749366,664.8236207200491 M-3.7672772731085615,530.845843657328 L220.27891222618192,662.6703996991671 M-5.643874426442721,529.6731729579718 L-3.7672772731085615,530.845843657328 M-3.254232358578463,498.52998458927 L-8.62463524442876,502.33617347284894 M-8.62463524442876,502.33617347284894 L-12.484309763486351,506.71119744180015 M-12.484309763486351,506.71119744180015 L-14.653958868332154,511.4534816472733 M-14.653958868332154,511.4534816472733 L-15.032056795293613,516.344205154118 M-15.032056795293613,516.344205154118 L-13.59966858924929,521.1573250208128 M-13.59966858924929,521.1573250208128 L-10.42165801665152,525.6700605851947 M-10.42165801665152,525.6700605851947 L-5.643874426442721,529.6731729579718 M579.1796641880466,196.44464674469825 L575.0633124301874,194.40101613805123 M596.747653588169,206.40057985447353 L579.1796641880466,196.44464674469825 M596.747653588169,206.40057985447353 L582.7148238696607,204.52377111113827 M582.7148238696607,204.52377111113827 L568.4015739313818,203.61344571019777 M568.4015739313818,203.61344571019777 L554.0098966411144,203.6822607763683 M554.0098966411144,203.6822607763683 L539.7428181599938,204.72927924691604 M539.7428181599938,204.72927924691604 L525.8016533488008,206.73990898364053 M525.8016533488008,206.73990898364053 L512.3833423714893,209.68607505873263 M512.3833423714893,209.68607505873263 L499.67762471022616,213.52664146871618 M499.67762471022616,213.52664146871618 L487.8644761769213,218.20791813568204 M487.8644761769213,218.20791813568204 L477.1117245425369,223.66436067807965 M-13.186069300354802,525.4493612252195 L-12.9785471592877,527.1339171566208 M-12.9785471592877,527.1339171566208 L-12.407803697797817,528.5447800161519 M-12.407803697797817,528.5447800161519 L-11.502551017497467,529.6112470863299 M-11.502551017497467,529.6112470863299 L-10.308204107163135,530.2798731123387 M-10.308204107163135,530.2798731123387 L-8.884730422141843,530.5172511790283 M-8.884730422141843,530.5172511790283 L-7.303531292835999,530.3115519456384 M-7.303531292835999,530.3115519456384 L-5.643874426442721,529.6731729579718 M-3.933609454544694,438.5476587520489 L-9.31315982059408,442.34752448076296 M-9.31315982059408,442.34752448076296 L-13.179474325013302,446.7152836264787 M-13.179474325013302,446.7152836264787 L-15.352946099549001,451.44969718442485 M-15.352946099549001,451.44969718442485 L-15.73186850330211,456.33230806250475 M-15.73186850330211,456.33230806250475 L-14.297263602951318,461.137448369584 M-14.297263602951318,461.137448369584 L-11.114093074417326,465.64270628683846 M-11.114093074417326,465.64270628683846 L-6.3284412665872765,469.63918863219965 M579.4715519947262,136.97275990829291 L575.3483835578866,134.9326402358583 M-6.3284412665872765,469.63918863219965 L-4.448737564817861,470.809917697281 M803.8890902277424,263.71978046319487 L579.4715519947262,136.97275990829291 M-4.448737564817861,470.809917697281 L219.97143044189792,602.417836811183 M805.7994298434234,264.8638341983773 L803.8890902277424,263.71978046319487 M219.97143044189792,602.417836811183 L224.16170265329043,604.567546105448 M804.8174905690577,295.35577423287515 L809.9819987610382,291.61789981501295 M809.9819987610382,291.61789981501295 L813.6163315098163,287.32528950972835 M813.6163315098163,287.32528950972835 L815.5533365415,282.67702896291564 M815.5533365415,282.67702896291564 L815.7047688484744,277.8883766028425 M815.7047688484744,277.8883766028425 L814.0650361084535,273.180760568238 M814.0650361084535,273.180760568238 L810.7112638160751,268.77148972254093 M810.7112638160751,268.77148972254093 L805.7994298434234,264.8638341983773 M224.16170265329043,604.567546105448 L231.82657393423534,607.1873504148466 M231.82657393423534,607.1873504148466 L240.91273391850217,608.8202080988522 M240.91273391850217,608.8202080988522 L250.41671381862966,609.1399175033755 M250.41671381862966,609.1399175033755 L259.78784971204516,608.1278548242849 M259.78784971204516,608.1278548242849 L268.48317711600845,605.8428825634317 M268.48317711600845,605.8428825634317 L275.9993420274266,602.417836811183 M275.9993420274266,602.417836811183 L804.8174905690577,295.35577423287515 M552.1448188238086,133.09772147118736 L-11.243184000227984,454.60022545782954 M-11.243184000227984,454.60022545782954 L247.9506294656886,606.5018927648503 M247.9506294656886,606.5018927648503 L811.3392423923784,279.5865346891569 M811.3392423923784,279.5865346891569 L552.1448188238086,133.09772147118736 M-13.697364408718954,481.41987691994194 L-13.530962995027949,479.54183387880545 M-13.530962995027949,479.54183387880545 L-12.998704519911598,477.569022843172 M-12.998704519911598,477.569022843172 L-12.127284549766898,475.60045533233773 M-12.127284549766898,475.60045533233773 L-10.960373393206282,473.73490356768633 M-10.960373393206282,473.73490356768633 L-9.556563085579455,472.06602694099377 M-9.556563085579455,472.06602694099377 L-7.986317220159435,470.67756941315645 M-7.986317220159435,470.67756941315645 L-6.3284412665872765,469.63918863219965 M-13.186069300354802,525.4493612252195 L-11.104552964753339,526.7547462437831 M-13.697364408718954,481.41987691994194 L-11.61332198486474,482.72367726794647 M-11.104552964753339,526.7547462437831 L-11.61332198486474,482.72367726794647 M810.2993204653079,311.6500897236431 L668.4396488366223,231.3280899308013 M810.2993204653079,311.6500897236431 L810.7960142990737,267.88328401820456 M810.7960142990737,267.88328401820456 L586.2140626862438,141.03773637511972 M620.2923044830156,204.06670592507203 L585.9918765377842,184.6455488430043 M620.2923044830156,204.06670592507203 L620.3642168824185,192.17745322082652 M668.5275622048539,219.42952310270087 L668.3998044904405,218.02773215155676 M668.3998044904405,218.02773215155676 L668.0178514216608,216.54813808063597 M668.0178514216608,216.54813808063597 L667.4313801960316,215.0599464235792 M667.4313801960316,215.0599464235792 L666.692831111733,213.60444530731482 M666.692831111733,213.60444530731482 L665.5431519387133,211.74643878161865 M665.5431519387133,211.74643878161865 L663.5936223703791,209.15459151747336 M663.5936223703791,209.15459151747336 L660.3899299096487,205.6677101656143 M660.3899299096487,205.6677101656143 L655.291066380946,201.15669236519508 M655.291066380946,201.15669236519508 L647.395229169499,195.6025253681002 M647.395229169499,195.6025253681002 L638.2890765946257,190.74450835328076 M638.2890765946257,190.74450835328076 L630.5988955682329,188.06926052212802 M630.5988955682329,188.06926052212802 L625.4680451337598,187.53801354248952 M625.4680451337598,187.53801354248952 L623.3722235812194,187.9365086820843 M623.3722235812194,187.9365086820843 L622.0052758552904,188.6428162547227 M622.0052758552904,188.6428162547227 L621.1744606910592,189.47556246423213 M621.1744606910592,189.47556246423213 L620.6045420085796,190.596448673609 M620.6045420085796,190.596448673609 L620.427991175157,191.3452686093778 M620.427991175157,191.3452686093778 L620.3642168824185,192.17745322082652 M668.4396488366223,231.3280899308013 L668.5275622048539,219.42952310270087 M585.9918765377842,184.6455488430043 L585.8131339297873,186.50491154012266 M585.8131339297873,186.50491154012266 L585.3038058745335,188.4654802842956 M585.3038058745335,188.4654802842956 L584.4894344917383,190.42902335142043 M584.4894344917383,190.42902335142043 L583.4108815453196,192.2971415594571 M583.4108815453196,192.2971415594571 L582.1221452426188,193.97626517024975 M582.1221452426188,193.97626517024975 L580.6877991758548,195.38225087720636 M580.6877991758548,195.38225087720636 L579.1796641880466,196.44464674469825 M586.2140626862438,141.03773637511972 L586.0530783016108,139.36836395567775 M586.0530783016108,139.36836395567775 L585.5601153136024,137.97683938745683 M585.5601153136024,137.97683938745683 L584.7598190283545,136.9329730103334 M584.7598190283545,136.9329730103334 L583.692303094051,136.28914865471302 M583.692303094051,136.28914865471302 L582.4110120875608,136.07774800879633 M582.4110120875608,136.07774800879633 L580.9801883185487,136.30946133700655 M580.9801883185487,136.30946133700655 L579.4715519947262,136.97275990829291 M668.5275622048539,219.42952310270087 L674.1750104320579,226.0073570993294 M674.1750104320579,226.0073570993294 L678.5811498863808,232.88830748050373 M678.5811498863808,232.88830748050373 L681.6952719877497,239.99588072606778 M681.6952719877497,239.99588072606778 L683.4810499430007,247.2508179077794 M683.4810499430007,247.2508179077794 L683.8494424190483,255.9160526914638 M683.8494424190483,255.9160526914638 L682.3192014358588,264.5381850702636 M682.3192014358588,264.5381850702636 L678.9116281211949,272.9815740309487 M678.9116281211949,272.9815740309487 L673.6777100839582,281.1130118302603 M673.6777100839582,281.1130118302603 L666.6975038956966,288.8038376914746 M666.6975038956966,288.8038376914746 L658.0789408566895,295.93206624488283 M658.0789408566895,295.93206624488283 L647.9563049712916,302.38434647779223 M647.9563049712916,302.38434647779223 L636.4881854006802,308.0578150523697 M636.4881854006802,308.0578150523697 L623.854931058161,312.86188534934684 M623.854931058161,312.86188534934684 L610.2558849804465,316.71969088816064 M610.2558849804465,316.71969088816064 L595.9061223419378,319.5694338839478 M595.9061223419378,319.5694338839478 L581.033044807954,321.36539651612327 M581.033044807954,321.36539651612327 L565.8725813378076,322.078759460071 M565.8725813378076,322.078759460071 L550.6654087751946,321.69806313237973 M550.6654087751946,321.69806313237973 L535.6529422951571,320.2294271482761 M535.6529422951571,320.2294271482761 L521.0734244880626,317.69642176847583 M521.0734244880626,317.69642176847583 L507.1579786132706,314.1396865814673 M507.1579786132706,314.1396865814673 L494.12683176682174,309.6162291780717 M494.12683176682174,309.6162291780717 L482.18580638851444,304.19844288071573 M482.18580638851444,304.19844288071573 L471.5229091575291,297.9729113230338 M471.5229091575291,297.9729113230338 L462.305423790951,291.03892142160595 M462.305423790951,291.03892142160595 L454.67726910240197,283.5068093571998 M454.67726910240197,283.5068093571998 L448.756765807229,275.49615523546515 M448.756765807229,275.49615523546515 L444.634899366614,267.1337969064708 M444.634899366614,267.1337969064708 L442.3739834742898,258.55178427628573 M442.3739834742898,258.55178427628573 L442.00685438129995,249.88525541166143 M442.00685438129995,249.88525541166143 L443.53651836271206,241.27027596562675 M443.53651836271206,241.27027596562675 L446.9362518742774,232.8417112734603 M446.9362518742774,232.8417112734603 L452.0715041885346,224.83353779193033 M452.0715041885346,224.83353779193033 L458.8938692740644,217.25665035790345 M458.8938692740644,217.25665035790345 L467.2975096665742,210.22565576655563 M467.2975096665742,210.22565576655563 L477.1529696411561,203.84664182866362 M477.1529696411561,203.84664182866362 L488.30922128459696,198.2156645318372 M488.30922128459696,198.2156645318372 L500.5960258393922,193.41730232818463 M500.5960258393922,193.41730232818463 L513.8264280736053,189.5235523701481 M513.8264280736053,189.5235523701481 L527.7997219639909,186.59269056543704 M527.7997219639909,186.59269056543704 L542.1924884374791,184.6793271498622 M542.1924884374791,184.6793271498622 L556.8939749415448,183.78566121146272 M556.8939749415448,183.78566121146272 L571.6853047412347,183.92481302410914 M571.6853047412347,183.92481302410914 L584.3478084699049,184.87341251555273 M584.3478084699049,184.87341251555273 L596.7730077639861,186.5788496277909 M596.7730077639861,186.5788496277909 L608.8230560611314,189.022470098928 M608.8230560611314,189.022470098928 L620.3642168824185,192.17745322082652 M620.2923044830156,204.06670592507203 L620.2379658177815,204.51265301398087 M620.2379658177815,204.51265301398087 L620.0882144229761,204.9116365888062 M620.0882144229761,204.9116365888062 L619.8579407812215,205.26242693376633 M619.8579407812215,205.26242693376633 L619.4599467789646,205.65491191737595 M619.4599467789646,205.65491191737595 L618.7355911259316,206.11414915392808 M618.7355911259316,206.11414915392808 L617.4661529193636,206.60751212097398 M617.4661529193636,206.60751212097398 L613.2596524826179,207.31031420638868 M613.2596524826179,207.31031420638868 L607.7819176880947,207.44494560044953 M607.7819176880947,207.44494560044953 L602.2454830616259,207.12025427576032 M602.2454830616259,207.12025427576032 L596.747653588169,206.40057985447353 M668.4396488366223,231.3280899308013 L668.4648586279785,231.81981313145886 M668.4648586279785,231.81981313145886 L668.5430609321901,232.34861886490194 M668.5430609321901,232.34861886490194 L668.6656243200941,232.8999500121202 M668.6656243200941,232.8999500121202 L668.8783071470186,233.63920931478293 M668.8783071470186,233.63920931478293 L669.2633016155469,234.7280472153527 M669.2633016155469,234.7280472153527 L669.9265526616058,236.3179285004879 M669.9265526616058,236.3179285004879 L672.0034692858145,240.58507632556635 M672.0034692858145,240.58507632556635 L674.4278229732688,245.20265714211143 M674.4278229732688,245.20265714211143 L676.5694146760027,249.23457797266659 M676.5694146760027,249.23457797266659 L678.4039382723398,252.67590993309466 M810.2993204653079,311.6500897236431 L810.1041111797621,313.5141173072171 M810.1041111797621,313.5141173072171 L809.5684025035255,315.4756273306822 M809.5684025035255,315.4756273306822 L808.7191225132863,317.43630246212143 M808.7191225132863,317.43630246212143 L807.5987845814699,319.2979529305645 M807.5987845814699,319.2979529305645 L806.263510394354,320.9672900055295 M806.263510394354,320.9672900055295 L804.7802296899292,322.360668322499 M804.7802296899292,322.360668322499 L803.2232305589325,323.4082668283745 M812.4150707378441,312.9246947715058 L812.2145109722251,314.78556366235745 M812.2145109722251,314.78556366235745 L811.6633115363886,316.73760012584637 M811.6633115363886,316.73760012584637 L810.7891383684429,318.6829830345187 M810.7891383684429,318.6829830345187 L809.635758150192,320.52428069487155 M809.635758150192,320.52428069487155 L808.2609820018448,322.1692100760204 M808.2609820018448,322.1692100760204 L806.7336814127593,323.5353648943979 M806.7336814127593,323.5353648943979 L805.1303615766209,324.55426198044466 M812.4150707378441,312.9246947715058 L810.2993204653079,311.6500897236431 M811.2033000431876,351.09617540902775 L811.0084754409144,352.7675188853892 M811.0084754409144,352.7675188853892 L810.4741328471197,354.15663311512407 M810.4741328471197,354.15663311512407 L809.6271459593585,355.1938986205022 M809.6271459593585,355.1938986205022 L808.5100389808194,355.82735955796903 M808.5100389808194,355.82735955796903 L807.1788940754922,356.0253470742043 M807.1788940754922,356.0253470742043 L805.7004734705573,355.7780187854135 M805.7004734705573,355.7780187854135 L804.1489059948973,355.0978555822153 M811.2033000431876,351.09617540902775 L816.9425570164601,347.04306544478237 M816.9425570164601,347.04306544478237 L821.2421684658312,342.4356777833513 M821.2421684658312,342.4356777833513 L823.9506320214043,337.43796859103776 M823.9506320214043,337.43796859103776 L824.9732172593884,332.22748675284106 M824.9732172593884,332.22748675284106 L824.2751282440639,326.9890274330999 M824.2751282440639,326.9890274330999 L821.8825995248436,321.9080546971987 M821.8825995248436,321.9080546971987 L817.8816812932791,317.1641543862124 M817.8816812932791,317.1641543862124 L812.4150707378441,312.9246947715058 M283.15033096810697,658.738325687706 L282.98159752488203,660.4213112040773 M282.98159752488203,660.4213112040773 L282.4719800957499,661.8145890973897 M282.4719800957499,661.8145890973897 L281.64711366996454,662.8483331637253 M281.64711366996454,662.8483331637253 L280.5484148115797,663.4707665715862 M280.5484148115797,663.4707665715862 L279.2310443649503,663.6507767577934 M279.2310443649503,663.6507767577934 L277.76107540750644,663.3794253169715 M277.76107540750644,663.3794253169715 L276.21221403193096,662.6703996991671 M283.15033096810697,658.738325687706 L811.2033000431876,351.09617540902775 M217.83702557497224,661.1409116176487 L218.01139754369237,662.8177340740731 M218.01139754369237,662.8177340740731 L218.50724939354828,664.1926299016893 M218.50724939354828,664.1926299016893 L219.29962611815586,665.1967011927834 M219.29962611815586,665.1967011927834 L220.3487835556414,665.7796426056207 M220.3487835556414,665.7796426056207 L221.60199818623113,665.9123321139964 M221.60199818623113,665.9123321139964 L222.9964289685601,665.5882148442597 M222.9964289685601,665.5882148442597 L224.4621442749366,664.8236207200491 M217.83702557497224,661.1409116176487 L225.32537056018717,663.9553808425687 M225.32537056018717,663.9553808425687 L233.56606843624783,665.9346850440206 M233.56606843624783,665.9346850440206 L242.28999862115194,667.0138483520329 M242.28999862115194,667.0138483520329 L251.2120281121567,667.1573981648401 M251.2120281121567,667.1573981648401 L260.0404523467556,666.3606437378421 M260.0404523467556,666.3606437378421 L268.48661287783665,664.6497458061187 M268.48661287783665,664.6497458061187 L276.2746455723291,662.0808808391698 M276.2746455723291,662.0808808391698 L283.15033096810697,658.738325687706 M213.20220618766027,658.738325687706 L213.38808982992776,660.4213190068756 M213.38808982992776,660.4213190068756 L213.91748395897642,661.8145969002851 M213.91748395897642,661.8145969002851 L214.763774436902,662.8483253609284 M214.763774436902,662.8483253609284 L215.88440435400096,663.4707665715862 M215.88440435400096,663.4707665715862 L217.22316600040742,663.6507767577934 M217.22316600040742,663.6507767577934 L218.71288736520583,663.3794331183963 M218.71288736520583,663.3794331183963 L220.27891222618192,662.6703996991671 M213.20220618766027,658.738325687706 L217.83702557497224,661.1409116176487 M-11.104552964753339,526.7547462437831 L-10.902285694498403,528.4360380450314 M-10.902285694498403,528.4360380450314 L-10.346755671096048,529.8371164700071 M-10.346755671096048,529.8371164700071 L-9.465953014769525,530.8877934291538 M-9.465953014769525,530.8877934291538 L-8.30406182350373,531.5354098229778 M-8.30406182350373,531.5354098229778 L-6.919389135927759,531.7476007149694 M-6.919389135927759,531.7476007149694 L-5.381431417165459,531.5138186045017 M-5.381431417165459,531.5138186045017 L-3.7672772731085615,530.845843657328 M-11.104552964753339,526.7547462437831 L213.20220618766027,658.738325687706 M-11.61332198486474,482.72367726794647 L-11.451977792873038,480.8422462180587 M-11.451977792873038,480.8422462180587 L-10.934760303424923,478.8595430376812 M-10.934760303424923,478.8595430376812 L-10.087654124921528,476.87510074830044 M-10.087654124921528,476.87510074830044 L-8.953106790376125,474.98848281585737 M-8.953106790376125,474.98848281585737 L-7.588054473147224,473.2943934668229 M-7.588054473147224,473.2943934668229 L-6.061056835655791,471.87785892252816 M-6.061056835655791,471.87785892252816 L-4.448737564817861,470.809917697281 M810.7960142990737,267.88328401820456 L810.6407684055399,266.205715391611 M810.6407684055399,266.205715391611 L810.1425003253207,264.8029254034058 M810.1425003253207,264.8029254034058 L809.326182147542,263.74525237729875 M809.326182147542,263.74525237729875 L808.2326305422062,263.0858387861847 M808.2326305422062,263.0858387861847 L806.9166239123064,262.857804755909 M806.9166239123064,262.857804755909 L805.4441692324599,263.072681051359 M805.4441692324599,263.072681051359 L803.8890902277424,263.71978046319487 M-11.61332198486474,482.72367726794647 L212.96794149370677,614.5482354996968 M212.96794149370677,614.5482354996968 L213.13510717764152,612.6556426223851 M213.13510717764152,612.6556426223851 L213.64726476417812,610.6529301063372 M213.64726476417812,610.6529301063372 L214.47874651404197,608.6405987582523 M214.47874651404197,608.6405987582523 L215.58778347329357,606.7196826536374 M215.58778347329357,606.7196826536374 L216.91874907082124,604.9865646862768 M216.91874907082124,604.9865646862768 L218.4048164704065,603.5282383861984 M218.4048164704065,603.5282383861984 L219.97143044189792,602.417836811183 M812.9143745285076,269.1563045789834 L812.7539823461306,267.4754533952665 M812.7539823461306,267.4754533952665 L812.2404016097169,266.06308214886064 M812.2404016097169,266.06308214886064 L811.3993308834772,264.9900322413895 M811.3993308834772,264.9900322413895 L810.2728317650048,264.3102093118967 M810.2728317650048,264.3102093118967 L808.9173673912962,264.0577420416398 M808.9173673912962,264.0577420416398 L807.4008855460706,264.2454006968385 M807.4008855460706,264.2454006968385 L805.7994298434234,264.8638341983773 M812.9143745285076,269.1563045789834 L810.7960142990737,267.88328401820456 M212.96794149370677,614.5482354996968 L217.60847971161678,616.947948685636 M217.60847971161678,616.947948685636 L217.76458142541995,615.0489605789874 M217.76458142541995,615.0489605789874 L218.243587598567,613.0276712538255 M218.243587598567,613.0276712538255 L219.02146477742278,610.9855301416464 M219.02146477742278,610.9855301416464 L220.05923852857794,609.025013072727 M220.05923852857794,609.025013072727 L221.30475582698972,607.244529708543 M221.30475582698972,607.244529708543 L222.69551880984483,605.7334422187387 M222.69551880984483,605.7334422187387 L224.16170265329043,604.567546105448 M811.7021973634882,307.2804361960436 L811.5475086880593,305.40648489896347 M811.5475086880593,305.40648489896347 L811.0507575307578,303.4283813277446 M811.0507575307578,303.4283813277446 L810.2368521801859,301.4453980367386 M810.2368521801859,301.4453980367386 L809.1466133915845,299.55705682061745 M809.1466133915845,299.55705682061745 L807.8347763455363,297.8581346398169 M807.8347763455363,297.8581346398169 L806.3671798229633,296.4338921047011 M806.3671798229633,296.4338921047011 L804.8174905690577,295.35577423287515 M811.7021973634882,307.2804361960436 L817.4483376647875,303.2323443947272 M817.4483376647875,303.2323443947272 L821.7530586999427,298.6306638704069 M821.7530586999427,298.6306638704069 L824.4646791057647,293.63914857817025 M824.4646791057647,293.63914857817025 L825.488359618949,288.4351279677012 M825.488359618949,288.4351279677012 L824.7892690250983,283.20316830284213 M824.7892690250983,283.20316830284213 L822.3936809882862,278.1285033959442 M822.3936809882862,278.1285033959442 L818.3877572223662,273.39049563109745 M818.3877572223662,273.39049563109745 L812.9143745285076,269.1563045789834 M217.60847971161678,616.947948685636 L225.10608056586682,619.7590536841803 M225.10608056586682,619.7590536841803 L233.356980459959,621.7359926063957 M233.356980459959,621.7359926063957 L242.09172444067912,622.8138665335775 M242.09172444067912,622.8138665335775 L251.02482451905155,622.9572448455062 M251.02482451905155,622.9572448455062 L259.8642124845353,622.1614423471658 M259.8642124845353,622.1614423471658 L268.32086979080816,620.4525888169728 M268.32086979080816,620.4525888169728 L276.1185881237083,617.8867942112497 M276.1185881237083,617.8867942112497 L283.0028309756177,614.5482354996968 M283.0028309756177,614.5482354996968 L282.82192897629403,612.6556348296724 M282.82192897629403,612.6556348296724 L282.3002209946096,610.6529223142445 M282.3002209946096,610.6529223142445 L281.4638678361711,608.640606549603 M281.4638678361711,608.640606549603 L280.3548175031947,606.7196826536374 M280.3548175031947,606.7196826536374 L279.0287500949818,604.9865646862768 M279.0287500949818,604.9865646862768 L277.55221968579605,603.5282305974122 M277.55221968579605,603.5282305974122 L275.9993420274266,602.417836811183 M283.0028309756177,614.5482354996968 L811.7021973634882,307.2804361960436 M551.9801461491005,172.76294843805618 L527.7997219639909,186.59269056543704 M446.9362518742774,232.8417112734603 L447.107753613613,230.82359868292787 M447.107753613613,230.82359868292787 L447.5994226789926,228.6952845345762 M447.5994226789926,228.6952845345762 L448.345465992763,226.58597694212796 M448.345465992763,226.58597694212796 L449.62519309443513,223.88372746756258 M449.62519309443513,223.88372746756258 L451.36700135157315,220.9747046462222 M451.36700135157315,220.9747046462222 L454.0135941919657,217.36484781390726 M454.0135941919657,217.36484781390726 L458.3815721484401,212.5112421470001 M458.3815721484401,212.5112421470001 L465.35267274098976,206.2585118557622 M465.35267274098976,206.2585118557622 L474.4076835796625,199.59260477193743 M474.4076835796625,199.59260477193743 L480.51724530979664,195.6382548806664 M480.51724530979664,195.6382548806664 L486.6372940898192,191.97611693786928 M486.6372940898192,191.97611693786928 L493.5100082183786,188.1734294083974 M493.5100082183786,188.1734294083974 L500.36405933697176,184.74699092707027 M500.36405933697176,184.74699092707027 L505.29771406419735,182.58428423975695 M505.29771406419735,182.58428423975695 L510.1803961863331,180.80196843554356 M510.1803961863331,180.80196843554356 L517.0753468408878,179.23912703343058 M517.0753468408878,179.23912703343058 L521.9448428503691,179.3556868478195 M521.9448428503691,179.3556868478195 L524.9045769116915,180.5230491261961 M524.9045769116915,180.5230491261961 L526.622085772955,182.2229799513321 M526.622085772955,182.2229799513321 L527.4640469959115,184.04699747698834 M527.4640469959115,184.04699747698834 L527.7169693501103,185.25699851158575 M527.7169693501103,185.25699851158575 L527.7997219639909,186.59269056543704 M446.9362518742774,232.8417112734603 L-10.781441929961943,494.6285858126698 M-10.781441929961943,494.6285858126698 L-11.243184000227984,454.60022545782954 M551.9801461491005,172.76294843805618 L552.1448188238086,133.09772147118736 M248.12425667797925,646.6973453181517 L247.9506294656886,606.5018927648503 M-10.781441929961943,494.6285858126698 L248.12425667797925,646.6973453181517 M810.8864521508724,319.41881596406154 L811.3392423923784,279.5865346891569 M248.12425667797925,646.6973453181517 L810.8864521508724,319.41881596406154 M810.8864521508724,319.41881596406154 L683.4810499430007,247.2508179077794 M683.4810499430007,247.2508179077794 L683.2097118943097,244.1388179235169 M683.2097118943097,244.1388179235169 L682.733070828247,242.023368957399 M682.733070828247,242.023368957399 L681.9157230202231,239.53742609218935 M681.9157230202231,239.53742609218935 L680.4526350838551,236.25689230671904 M680.4526350838551,236.25689230671904 L678.410675000319,232.7129391719476 M678.410675000319,232.7129391719476 L676.0667053421892,229.3886371945979 M676.0667053421892,229.3886371945979 L672.6289145027448,225.3352528808951 M672.6289145027448,225.3352528808951 L667.0838463821782,220.03220826515985 M667.0838463821782,220.03220826515985 L659.5623854819712,214.2936357770766 M659.5623854819712,214.2936357770766 L654.3499921047243,210.92632678764727 M654.3499921047243,210.92632678764727 L649.1184590727913,207.85620244855932 M649.1184590727913,207.85620244855932 L606.1257235894333,183.5306096791393 M571.6853047412347,183.92481302410914 L571.9913658194212,181.1503773133887 M571.9913658194212,181.1503773133887 L572.4875109066572,179.59235836714032 M572.4875109066572,179.59235836714032 L573.3242302680887,178.0501093713561 M573.3242302680887,178.0501093713561 L574.8077178189144,176.44627095762024 M574.8077178189144,176.44627095762024 L576.8657890967571,175.23128049955469 M576.8657890967571,175.23128049955469 L579.2197049379373,174.57249226944776 M579.2197049379373,174.57249226944776 L582.6631587776352,174.41999836107266 M582.6631587776352,174.41999836107266 L588.2052308976367,175.39706659602933 M588.2052308976367,175.39706659602933 L595.710853472022,178.16491179600445 M595.710853472022,178.16491179600445 L600.9089332786822,180.68881110183884 M600.9089332786822,180.68881110183884 L606.1257235894333,183.5306096791393 M571.6853047412347,183.92481302410914 L551.9801461491005,172.76294843805618 M213.20220618766027,658.738325687706 L212.96794149370677,614.5482354996968 M649.1184590727913,207.85620244855932 L642.8151541365436,201.82145982301088 M642.8151541365436,201.82145982301088 L635.2327709623618,196.28826061362736 M635.2327709623618,196.28826061362736 L626.4938796663143,191.34477095783114 M626.4938796663143,191.34477095783114 L616.7392809960879,187.06960370335867 M616.7392809960879,187.06960370335867 L606.1257235894333,183.5306096791393 M812.4150707378441,312.9246947715058 L812.9143745285076,269.1563045789834 M811.2033000431876,351.09617540902775 L811.7021973634882,307.2804361960436 M283.15033096810697,658.738325687706 L283.0028309756177,614.5482354996968 M217.83702557497224,661.1409116176487 L217.60847971161678,616.947948685636" stroke="black"  stroke-width="4"  fill="red"/>
<path d="M647.8139390645421,203.84664182866362 L647.2748914752251,282.9871088987376 M647.2748914752251,282.9871088987376 L635.8569235907455,277.2617327460415 M635.8569235907455,277.2617327460415 L623.2938755222699,272.3983287952723 M623.2938755222699,272.3983287952723 L609.7828302975383,268.4721264924889 M609.7828302975383,268.4721264924889 L595.5351921962564,265.5437901299515 M595.5351921962564,265.5437901299515 L580.773550467171,263.6584890239026 M580.773550467171,263.6584890239026 L565.7281973883969,262.8452885494861 M565.7281973883969,262.8452885494861 L550.633735781306,263.11669727586286 M550.633735781306,263.11669727586286 L535.725447325415,264.46857107040023 M535.725447325415,264.46857107040023 L521.2358397470236,266.88002746527593 M521.2358397470236,266.88002746527593 L507.3910975994458,270.31393134511427 M507.3910975994458,270.31393134511427 L494.4076839302712,274.7172452661847 M494.4076839302712,274.7172452661847 L482.4890535589686,280.02191323953764 M482.4890535589686,280.02191323953764 L471.822464870797,286.1458084639466 M471.822464870797,286.1458084639466 L462.57614431359707,292.99393016447556 M462.57614431359707,292.99393016447556 L454.8965918311101,300.4598276566137 M454.8965918311101,300.4598276566137 L448.9062473357548,308.42713307923515 M448.9062473357548,308.42713307923515 L444.7014830573276,316.7713820828715 M444.7014830573276,316.7713820828715 L442.3508881886765,325.36182405460556 M442.3508881886765,325.36182405460556 L441.894220535221,334.0634964844418 M441.894220535221,334.0634964844418 L443.34141786262137,342.73927327727984 M443.34141786262137,342.73927327727984 L446.67239227794647,351.2520428468322 M446.67239227794647,351.2520428468322 L451.83710736715267,359.4669010479524 M451.83710736715267,359.4669010479524 L458.75625825145244,367.2532788275924 M458.75625825145244,367.2532788275924 L467.32237905597253,374.48708752265736 M467.32237905597253,374.48708752265736 L477.4013954016754,381.0527756096708 M477.4013954016754,381.0527756096708 L488.83470231347377,386.8452112629813 M488.83470231347377,386.8452112629813 L501.4416364134265,391.7714543723282 M501.4416364134265,391.7714543723282 L515.0223719634185,395.75232046571057 M515.0223719634185,395.75232046571057 L529.3610692787054,398.7237356349833 M529.3610692787054,398.7237356349833 L544.2294388879665,400.6378212103593 M544.2294388879665,400.6378212103593 L559.3904899248171,401.4636933143202 M559.3904899248171,401.4636933143202 L574.6023711430854,401.188030851382 M574.6023711430854,401.188030851382 L589.6224056269463,399.815278786355 M589.6224056269463,399.815278786355 L604.2110502659842,397.3675942783434 M604.2110502659842,397.3675942783434 L618.1358988635495,393.88443291020275 M618.1358988635495,393.88443291020275 L631.1754688969386,389.42189161075976 M631.1754688969386,389.42189161075976 L643.1227785841741,384.05176373099215 M643.1227785841741,384.05176373099215 L653.7887581157421,377.86028365224917 M653.7887581157421,377.86028365224917 L663.0052194827036,370.94669880518984 M663.0052194827036,370.94669880518984 L670.6275485855203,363.4215785269606 M670.6275485855203,363.4215785269606 L676.5368996943909,355.4049960980507 M676.5368996943909,355.4049960980507 L680.6419758061135,347.0245478199811 M680.6419758061135,347.0245478199811 L682.8804501398204,338.41321426061404 M682.8804501398204,338.41321426061404 L683.2196235463157,329.7073082585467 M683.2196235463157,329.7073082585467 L681.6569578596431,321.0441880562437 M681.6569578596431,321.0441880562437 L678.2197746701509,312.56018648724375 M678.2197746701509,312.56018648724375 L672.9647761544721,304.3884098763181 M672.9647761544721,304.3884098763181 L665.9769186079583,296.65672291298455 M665.9769186079583,296.65672291298455 L657.3680416027084,289.4857526372056 M657.3680416027084,289.4857526372056 L647.2748914752251,282.9871088987376 M647.8139390645421,203.84664182866362 L657.347173671307,209.9102108821022 M657.347173671307,209.9102108821022 L665.5786058300952,216.5702859912041 M665.5786058300952,216.5702859912041 L672.3932125453514,223.73556919441813 M672.3932125453514,223.73556919441813 L677.6950494274154,231.30767621003534 M677.6950494274154,231.30767621003534 L681.4088499125031,239.18233016140215 M681.4088499125031,239.18233016140215 L683.4810499430007,247.2508179077794 M683.4810499430007,247.2508179077794 L683.8494424190483,255.9160526914638 M683.8494424190483,255.9160526914638 L682.3192014358588,264.5381850702636 M682.3192014358588,264.5381850702636 L678.9116281211949,272.9815740309487 M678.9116281211949,272.9815740309487 L673.6777100839582,281.1130118302603 M673.6777100839582,281.1130118302603 L666.6975038956966,288.8038376914746 M666.6975038956966,288.8038376914746 L658.0789408566895,295.93206624488283 M658.0789408566895,295.93206624488283 L647.9563049712916,302.38434647779223 M647.9563049712916,302.38434647779223 L636.4881854006802,308.0578150523697 M636.4881854006802,308.0578150523697 L623.854931058161,312.86188534934684 M623.854931058161,312.86188534934684 L610.2558849804465,316.71969088816064 M610.2558849804465,316.71969088816064 L595.9061223419378,319.5694338839478 M595.9061223419378,319.5694338839478 L581.033044807954,321.36539651612327 M581.033044807954,321.36539651612327 L565.8725813378076,322.078759460071 M565.8725813378076,322.078759460071 L550.6654087751946,321.69806313237973 M550.6654087751946,321.69806313237973 L535.6529422951571,320.2294271482761 M535.6529422951571,320.2294271482761 L521.0734244880626,317.69642176847583 M521.0734244880626,317.69642176847583 L507.1579786132706,314.1396865814673 M507.1579786132706,314.1396865814673 L494.12683176682174,309.6162291780717 M494.12683176682174,309.6162291780717 L482.18580638851444,304.19844288071573 M482.18580638851444,304.19844288071573 L471.5229091575291,297.9729113230338 M471.5229091575291,297.9729113230338 L462.305423790951,291.03892142160595 M462.305423790951,291.03892142160595 L454.67726910240197,283.5068093571998 M454.67726910240197,283.5068093571998 L448.756765807229,275.49615523546515 M448.756765807229,275.49615523546515 L444.634899366614,267.1337969064708 M444.634899366614,267.1337969064708 L442.3739834742898,258.55178427628573 M442.3739834742898,258.55178427628573 L442.00685438129995,249.88525541166143 M442.00685438129995,249.88525541166143 L443.53651836271206,241.27027596562675 M443.53651836271206,241.27027596562675 L446.9362518742774,232.8417112734603 M446.9362518742774,232.8417112734603 L452.0715041885346,224.83353779193033 M452.0715041885346,224.83353779193033 L458.8938692740644,217.25665035790345 M458.8938692740644,217.25665035790345 L467.2975096665742,210.22565576655563 M467.2975096665742,210.22565576655563 L477.1529696411561,203.84664182866362 M477.1529696411561,203.84664182866362 L488.30922128459696,198.2156645318372 M488.30922128459696,198.2156645318372 L500.5960258393922,193.41730232818463 M500.5960258393922,193.41730232818463 L513.8264280736053,189.5235523701481 M513.8264280736053,189.5235523701481 L527.7997219639909,186.59269056543704 M527.7997219639909,186.59269056543704 L542.1924884374791,184.6793271498622 M542.1924884374791,184.6793271498622 L556.8939749415448,183.78566121146272 M556.8939749415448,183.78566121146272 L571.6853047412347,183.92481302410914 M571.6853047412347,183.92481302410914 L585.7689911836181,185.0287720324871 M585.7689911836181,185.0287720324871 L599.5391159584639,187.06833035907195 M599.5391159584639,187.06833035907195 L612.8064537823371,190.01580524143648 M612.8064537823371,190.01580524143648 L625.3884039217253,193.8311554255804 M625.3884039217253,193.8311554255804 L637.1115856891512,198.46245421307825 M637.1115856891512,198.46245421307825 L647.8139390645421,203.84664182866362 M647.2748914752251,282.9871088987376 L646.821452509209,287.624069665634 M646.821452509209,287.624069665634 L645.5438162746058,292.51679768098643 M645.5438162746058,292.51679768098643 L643.5061068411435,297.4204135646482 M643.5061068411435,297.4204135646482 L640.810353831839,302.08958730270433 M640.810353831839,302.08958730270433 L637.5914388767641,306.2907193750108 M637.5914388767641,306.2907193750108 L634.0103401661192,309.8135522645154 M634.0103401661192,309.8135522645154 L630.2462283932556,312.4816185416809 M630.2462283932556,312.4816185416809 L620.041714010786,307.425033290437 M620.041714010786,307.425033290437 L608.7252560425832,303.22939099394824 M608.7252560425832,303.22939099394824 L596.5160821585719,299.97510015558817 M596.5160821585719,299.97510015558817 L583.6502601059802,297.72445787127356 M583.6502601059802,297.72445787127356 L570.376244561869,296.52046021112545 M570.376244561869,296.52046021112545 L556.9500650636286,296.3861546115484 M556.9500650636286,296.3861546115484 L543.6306476153535,297.3240781982921 M543.6306476153535,297.3240781982921 L530.6749266515137,299.31633310152154 M530.6749266515137,299.31633310152154 L518.3329643379839,302.3248110445071 M518.3329643379839,302.3248110445071 L506.8432962176035,306.2919715602542 M506.8432962176035,306.2919715602542 L496.42849067924203,311.1417958739202 M496.42849067924203,311.1417958739202 L487.2907101224682,316.78125533990857 M487.2907101224682,316.78125533990857 L479.6080030027222,323.1019688244163 M479.6080030027222,323.1019688244163 L473.5307132689541,329.9822158523037 M473.5307132689541,329.9822158523037 L469.17856622410386,337.2892195250967 M469.17856622410386,337.2892195250967 L466.63816362532316,344.8815974287544 M466.63816362532316,344.8815974287544 L465.96120486016497,352.61212026804 M465.96120486016497,352.61212026804 L467.16326563141615,360.3304713192364 M467.16326563141615,360.3304713192364 L470.2233474707945,367.8861828800238 M470.2233474707945,367.8861828800238 L475.08405371526396,375.1315979789974 M475.08405371526396,375.1315979789974 L481.65261240124414,381.9247469099761 M481.65261240124414,381.9247469099761 L489.8024186191099,388.1322503437833 M489.8024186191099,388.1322503437833 L499.3755561897824,393.63192846930053 M499.3755561897824,393.63192846930053 L510.18568749101746,398.3153339459238 M510.18568749101746,398.3153339459238 L522.0216976073647,402.0899821853399 M522.0216976073647,402.0899821853399 L534.6519605851257,404.88119139001077 M534.6519605851257,404.88119139001077 L547.8287921093937,406.63370925159614 M547.8287921093937,406.63370925159614 L561.2935451537509,407.3127998799975 M561.2935451537509,407.3127998799975 L574.7817313867132,406.90500711118295 M574.7817313867132,406.90500711118295 L588.0283952012787,405.41841466188606 M588.0283952012787,405.41841466188606 L600.7734617121246,402.88247722025983 M600.7734617121246,402.88247722025983 L612.7669402812835,399.34742677942324 M612.7669402812835,399.34742677942324 L623.7739757727471,394.8832045398649 M623.7739757727471,394.8832045398649 L633.5795204337763,389.57801360119464 M633.5795204337763,389.57801360119464 L641.992566432468,383.5365184430328 M641.992566432468,383.5365184430328 L648.849926599164,376.87765363435636 M648.849926599164,376.87765363435636 L654.0192422771391,369.73228757064 M654.0192422771391,369.73228757064 L657.4016331997724,362.2404798310035 M657.4016331997724,362.2404798310035 L658.933372914201,354.54874428768477 M658.933372914201,354.54874428768477 L658.5870174214856,346.8071151110229 M658.5870174214856,346.8071151110229 L656.3716992268321,339.1662339208829 M656.3716992268321,339.1662339208829 L652.3328841501163,331.7743520918357 M652.3328841501163,331.7743520918357 L646.5511201335026,324.774591499238 M646.5511201335026,324.774591499238 L639.1404927133657,318.30211555308887 M639.1404927133657,318.30211555308887 L630.2462283932556,312.4816185416809 M606.1257235894333,183.5306096791393 L616.7392809960879,187.06960370335867 M616.7392809960879,187.06960370335867 L626.4938796663143,191.34477095783114 M626.4938796663143,191.34477095783114 L635.2327709623618,196.28826061362736 M635.2327709623618,196.28826061362736 L642.8151541365436,201.82145982301088 M642.8151541365436,201.82145982301088 L649.1184590727913,207.85620244855932 M571.6853047412347,183.92481302410914 L571.9913658194212,181.1503773133887 M571.9913658194212,181.1503773133887 L572.4875109066572,179.59235836714032 M572.4875109066572,179.59235836714032 L573.3242302680887,178.0501093713561 M573.3242302680887,178.0501093713561 L574.8077178189144,176.44627095762024 M574.8077178189144,176.44627095762024 L576.8657890967571,175.23128049955469 M576.8657890967571,175.23128049955469 L579.2197049379373,174.57249226944776 M579.2197049379373,174.57249226944776 L582.6631587776352,174.41999836107266 M582.6631587776352,174.41999836107266 L588.2052308976367,175.39706659602933 M588.2052308976367,175.39706659602933 L595.710853472022,178.16491179600445 M595.710853472022,178.16491179600445 L600.9089332786822,180.68881110183884 M600.9089332786822,180.68881110183884 L606.1257235894333,183.5306096791393 M683.4810499430007,247.2508179077794 L683.2097118943097,244.1388179235169 M683.2097118943097,244.1388179235169 L682.733070828247,242.023368957399 M682.733070828247,242.023368957399 L681.9157230202231,239.53742609218935 M681.9157230202231,239.53742609218935 L680.4526350838551,236.25689230671904 M680.4526350838551,236.25689230671904 L678.410675000319,232.7129391719476 M678.410675000319,232.7129391719476 L676.0667053421892,229.3886371945979 M676.0667053421892,229.3886371945979 L672.6289145027448,225.3352528808951 M672.6289145027448,225.3352528808951 L667.0838463821782,220.03220826515985 M667.0838463821782,220.03220826515985 L659.5623854819712,214.2936357770766 M659.5623854819712,214.2936357770766 L654.3499921047243,210.92632678764727 M654.3499921047243,210.92632678764727 L649.1184590727913,207.85620244855932 M683.4810499430007,247.2508179077794 L571.6853047412347,183.92481302410914 M527.7997219639909,186.59269056543704 L446.9362518742774,232.8417112734603 M515.1832944225204,280.0731464160756 L523.7652397055906,284.2225594797511 M523.7652397055906,284.2225594797511 L533.4210740992526,287.51036639864316 M533.4210740992526,287.51036639864316 L543.8864333102138,289.84590233562983 M543.8864333102138,289.84590233562983 L554.8744223810315,291.16467386499505 M554.8744223810315,291.16467386499505 L566.083472038573,291.4302645482319 M566.083472038573,291.4302645482319 L577.2058680796822,290.63532960080977 M577.2058680796822,290.63532960080977 L587.9362807133712,288.8018420474793 M587.9362807133712,288.8018420474793 L597.9803873512504,285.9804211585167 M597.9803873512504,285.9804211585167 L607.0629902017625,282.24893052352024 M607.0629902017625,282.24893052352024 L614.9357282411229,277.71021826869185 M614.9357282411229,277.71021826869185 L621.3838415184537,272.48923688786294 M621.3838415184537,272.48923688786294 L626.2321038597713,266.72946725895355 M626.2321038597713,266.72946725895355 L629.3495217735333,260.58889669103155 M629.3495217735333,260.58889669103155 L630.6527108223657,254.23564459298308 M630.6527108223657,254.23564459298308 L630.1080370249948,247.84328830410075 M630.1080370249948,247.84328830410075 L627.7323206414482,241.58609516613734 M627.7323206414482,241.58609516613734 L623.5921806110878,235.63428123175083 M623.5921806110878,235.63428123175083 L617.8019783010925,230.14943195276436 M617.8019783010925,230.14943195276436 L610.5205638908428,225.2801773545657 M610.5205638908428,225.2801773545657 L601.9468762173212,221.15821513222483 M601.9468762173212,221.15821513222483 L592.3144387501063,217.89488969812834 M592.3144387501063,217.89488969812834 L581.8850483031546,215.57820971831492 M581.8850483031546,215.57820971831492 L570.9417524580193,214.27061086523705 M570.9417524580193,214.27061086523705 L559.7812363879196,214.0073185661284 M559.7812363879196,214.0073185661284 L548.705966281219,214.79542012007838 M548.705966281219,214.79542012007838 L538.0161534912925,216.6136913652518 M538.0161534912925,216.6136913652518 L528.0017632946237,219.4131430453582 M528.0017632946237,219.4131430453582 L518.9347282809633,223.11830964115745 M518.9347282809633,223.11830964115745 L511.0617379594759,227.62918958729074 M511.0617379594759,227.62918958729074 L504.59757965642626,232.82384654952716 M504.59757965642626,232.82384654952716 L499.71920282713546,238.5616582895905 M499.71920282713546,238.5616582895905 L496.56090931665875,244.68699958120948 M496.56090931665875,244.68699958120948 L495.2104707274478,251.03342021944155 M495.2104707274478,251.03342021944155 L495.70665281054386,257.42807486475874 M495.70665281054386,257.42807486475874 L498.03787871229156,263.69645551192434 M498.03787871229156,263.69645551192434 L502.1423915742139,269.6671140577416 M502.1423915742139,269.6671140577416 L507.90964038162946,275.176437309276 M507.90964038162946,275.176437309276 L515.1832944225204,280.0731464160756 M446.9362518742774,232.8417112734603 L447.107753613613,230.82359868292787 M447.107753613613,230.82359868292787 L447.5994226789926,228.6952845345762 M447.5994226789926,228.6952845345762 L448.345465992763,226.58597694212796 M448.345465992763,226.58597694212796 L449.62519309443513,223.88372746756258 M449.62519309443513,223.88372746756258 L451.36700135157315,220.9747046462222 M451.36700135157315,220.9747046462222 L454.0135941919657,217.36484781390726 M454.0135941919657,217.36484781390726 L458.3815721484401,212.5112421470001 M458.3815721484401,212.5112421470001 L465.35267274098976,206.2585118557622 M465.35267274098976,206.2585118557622 L474.4076835796625,199.59260477193743 M474.4076835796625,199.59260477193743 L480.51724530979664,195.6382548806664 M480.51724530979664,195.6382548806664 L486.6372940898192,191.97611693786928 M486.6372940898192,191.97611693786928 L493.5100082183786,188.1734294083974 M493.5100082183786,188.1734294083974 L500.36405933697176,184.74699092707027 M500.36405933697176,184.74699092707027 L505.29771406419735,182.58428423975695 M505.29771406419735,182.58428423975695 L510.1803961863331,180.80196843554356 M510.1803961863331,180.80196843554356 L517.0753468408878,179.23912703343058 M517.0753468408878,179.23912703343058 L521.9448428503691,179.3556868478195 M521.9448428503691,179.3556868478195 L524.9045769116915,180.5230491261961 M524.9045769116915,180.5230491261961 L526.622085772955,182.2229799513321 M526.622085772955,182.2229799513321 L527.4640469959115,184.04699747698834 M527.4640469959115,184.04699747698834 L527.7169693501103,185.25699851158575 M527.7169693501103,185.25699851158575 L527.7997219639909,186.59269056543704 M514.8719746533448,379.15921101498395 L523.4302236958475,383.32025949224425 M523.4302236958475,383.32025949224425 L533.0594115083906,386.6172819907405 M533.0594115083906,386.6172819907405 L543.4959059567125,388.9593622949257 M543.4959059567125,388.9593622949257 L554.4536073985553,390.2818283845715 M554.4536073985553,390.2818283845715 L565.6317828130149,390.5481630591994 M565.6317828130149,390.5481630591994 L576.723570993938,389.7510012185178 M576.723570993938,389.7510012185178 L587.4244876555339,387.91237667171913 M587.4244876555339,387.91237667171913 L597.4410237747641,385.0830487981366 M597.4410237747641,385.0830487981366 L606.4987402531293,381.3410969283907 M606.4987402531293,381.3410969283907 L614.3499582716441,376.78965456724234 M614.3499582716441,376.78965456724234 L620.7805048333963,371.55402155448735 M620.7805048333963,371.55402155448735 L625.6156292671021,365.77807847711733 M625.6156292671021,365.77807847711733 L628.7246895910098,359.62025382938583 M628.7246895910098,359.62025382938583 L630.0245202118335,353.2491377290775 M630.0245202118335,353.2491377290775 L629.4815682259504,346.8387948402186 M629.4815682259504,346.8387948402186 L627.1125961538706,340.56398313549255 M627.1125961538706,340.56398313549255 L622.9840290759495,334.5953992218151 M622.9840290759495,334.5953992218151 L617.209904852858,329.0950859591411 M617.209904852858,329.0950859591411 L609.9486301200022,324.2120951599894 M609.9486301200022,324.2120951599894 L601.3985926797586,320.07849910157796 M601.3985926797586,320.07849910157796 L591.7926727993857,316.80595950942694 M591.7926727993857,316.80595950942694 L581.3919492006717,314.4827362646907 M581.3919492006717,314.4827362646907 L570.4786954587751,313.1714434746974 M570.4786954587751,313.1714434746974 L559.3487872133824,312.90740731666 M559.3487872133824,312.90740731666 L548.3038664956141,313.69773536746595 M548.3038664956141,313.69773536746595 L537.6433271951233,315.5211427470861 M537.6433271951233,315.5211427470861 L527.6563450167483,318.32850013002167 M527.6563450167483,318.32850013002167 L518.6141115896074,322.0441264436299 M518.6141115896074,322.0441264436299 L510.7626433632794,326.56773489131484 M510.7626433632794,326.56773489131484 L504.31614048488035,331.77704196678866 M504.31614048488035,331.77704196678866 L499.45106733603797,337.53102590433434 M499.45106733603797,337.53102590433434 L496.30135616477776,343.6736203793385 M496.30135616477776,343.6736203793385 L494.95453549044146,350.03790462833956 M494.95453549044146,350.03790462833956 L495.4492618355723,356.4505460062119 M495.4492618355723,356.4505460062119 L497.77398728441705,362.73654588602915 M497.77398728441705,362.73654588602915 L501.86712230000524,368.7239754826186 M501.86712230000524,368.7239754826186 L507.6184183697629,374.24876411898737 M507.6184183697629,374.24876411898737 L514.8719746533448,379.15921101498395 M649.1184590727913,207.85620244855932 L606.1257235894333,183.5306096791393 M515.1832944225204,280.0731464160756 L514.8719746533448,379.15921101498395" stroke="black"  stroke-width="4"  fill="red"/>
<path d="M610.5205638908428,225.2801773545657 L617.8019783010925,230.14943195276436 M617.8019783010925,230.14943195276436 L623.5921806110878,235.63428123175083 M623.5921806110878,235.63428123175083 L627.7323206414482,241.58609516613734 M627.7323206414482,241.58609516613734 L630.1080370249948,247.84328830410075 M630.1080370249948,247.84328830410075 L630.6527108223657,254.23564459298308 M630.6527108223657,254.23564459298308 L629.3495217735333,260.58889669103155 M629.3495217735333,260.58889669103155 L626.2321038597713,266.72946725895355 M626.2321038597713,266.72946725895355 L621.3838415184537,272.48923688786294 M621.3838415184537,272.48923688786294 L614.9357282411229,277.71021826869185 M614.9357282411229,277.71021826869185 L607.0629902017625,282.24893052352024 M607.0629902017625,282.24893052352024 L597.9803873512504,285.9804211585167 M597.9803873512504,285.9804211585167 L587.9362807133712,288.8018420474793 M587.9362807133712,288.8018420474793 L577.2058680796822,290.63532960080977 M577.2058680796822,290.63532960080977 L566.083472038573,291.4302645482319 M566.083472038573,291.4302645482319 L554.8744223810315,291.16467386499505 M554.8744223810315,291.16467386499505 L543.8864333102138,289.84590233562983 M543.8864333102138,289.84590233562983 L533.4210740992526,287.51036639864316 M533.4210740992526,287.51036639864316 L523.7652397055906,284.2225594797511 M523.7652397055906,284.2225594797511 L515.1832944225204,280.0731464160756 M515.1832944225204,280.0731464160756 L507.90964038162946,275.176437309276 M507.90964038162946,275.176437309276 L502.1423915742139,269.6671140577416 M502.1423915742139,269.6671140577416 L498.03787871229156,263.69645551192434 M498.03787871229156,263.69645551192434 L495.70665281054386,257.42807486475874 M495.70665281054386,257.42807486475874 L495.2104707274478,251.03342021944155 M495.2104707274478,251.03342021944155 L496.56090931665875,244.68699958120948 M496.56090931665875,244.68699958120948 L499.71920282713546,238.5616582895905 M499.71920282713546,238.5616582895905 L504.59757965642626,232.82384654952716 M504.59757965642626,232.82384654952716 L511.0617379594759,227.62918958729074 M511.0617379594759,227.62918958729074 L518.9347282809633,223.11830964115745 M518.9347282809633,223.11830964115745 L528.0017632946237,219.4131430453582 M528.0017632946237,219.4131430453582 L538.0161534912925,216.6136913652518 M538.0161534912925,216.6136913652518 L548.705966281219,214.79542012007838 M548.705966281219,214.79542012007838 L559.7812363879196,214.0073185661284 M559.7812363879196,214.0073185661284 L570.9417524580193,214.27061086523705 M570.9417524580193,214.27061086523705 L581.8850483031546,215.57820971831492 M581.8850483031546,215.57820971831492 L592.3144387501063,217.89488969812834 M592.3144387501063,217.89488969812834 L601.9468762173212,221.15821513222483 M601.9468762173212,221.15821513222483 L610.5205638908428,225.2801773545657 M610.5205638908428,225.2801773545657 L609.8346197618663,343.93337051587145 M609.8346197618663,343.93337051587145 L601.2892967201705,339.7974704338684 M601.2892967201705,339.7974704338684 L591.6886628466865,336.5231060160155 M591.6886628466865,336.5231060160155 L581.2936537172102,334.19858690091706 M581.2936537172102,334.19858690091706 L570.3863886132965,332.88656253840145 M570.3863886132965,332.88656253840145 L559.262581797748,332.6223790613298 M559.262581797748,332.6223790613298 L548.2237110088778,333.4131480630473 M548.2237110088778,333.4131480630473 L537.5690071775025,335.2375726369843 M537.5690071775025,335.2375726369843 L527.5874886098309,338.04649571408714 M527.5874886098309,338.04649571408714 L518.5501992271315,341.7641935273986 M518.5501992271315,341.7641935273986 L510.70302130754635,346.29032278582105 M510.70302130754635,346.29032278582105 L504.2600379474054,351.5025312214319 M504.2600379474054,351.5025312214319 L499.39761683256506,357.25971793891216 M499.39761683256506,357.25971793891216 L496.24961653562355,363.4057292526584 M496.24961653562355,363.4057292526584 L494.90351712077404,369.77355120592455 M494.90351712077404,369.77355120592455 L495.39795333863776,376.1897546461835 M495.39795333863776,376.1897546461835 L497.7213830438615,382.47924378507304 M497.7213830438615,382.47924378507304 L501.81225005505706,388.4699946470519 M501.81225005505706,388.4699946470519 L507.5603661615249,393.9978459611159 M507.5603661615249,393.9978459611159 L514.8099162137153,398.9110133959171 M514.8099162137153,398.9110133959171 L523.363441702344,403.0743660602614 M523.363441702344,403.0743660602614 L532.9873178371885,406.37321353320203 M532.9873178371885,406.37321353320203 L543.4180584294186,408.7165898237889 M543.4180584294186,408.7165898237889 L554.3697223709862,410.039787548761 M554.3697223709862,410.039787548761 L565.5417433352193,410.30626955618806 M565.5417433352193,410.30626955618806 L576.6274301482123,409.5086667231544 M576.6274301482123,409.5086667231544 L587.3224670636272,407.66902489449564 M587.3224670636272,407.66902489449564 L597.3335072320897,404.83813119204314 M597.3335072320897,404.83813119204314 L606.3862627920156,401.09410766497655 M606.3862627920156,401.09410766497655 L614.2331909159188,396.5401443262601 M614.2331909159188,396.5401443262601 L620.6602356129337,391.3016097954037 M620.6602356129337,391.3016097954037 L625.4927410028894,385.5224638094971 M625.4927410028894,385.5224638094971 L628.6001351799009,379.3612222280719 M628.6001351799009,379.3612222280719 L629.8992961820562,372.98656838303003 M629.8992961820562,372.98656838303003 L629.3566872753065,366.572663445573 M629.3566872753065,366.572663445573 L626.989059477901,360.29436255300084 M626.989059477901,360.29436255300084 L622.8627992332648,354.3224574838764 M622.8627992332648,354.3224574838764 L617.091879920065,348.81908168821013 M617.091879920065,348.81908168821013 L609.8346197618663,343.93337051587145" stroke="black"  stroke-width="4"  fill="red"/>
<path d="M551.9801461491005,172.76294843805618 L552.1448188238086,133.09772147118736 M-10.781441929961943,494.6285858126698 L-11.243184000227984,454.60022545782954 M551.9801461491005,172.76294843805618 L-10.781441929961943,494.6285858126698 M552.1448188238086,133.09772147118736 L-11.243184000227984,454.60022545782954 M248.12425667797925,646.6973453181517 L247.9506294656886,606.5018927648503 M-10.781441929961943,494.6285858126698 L248.12425667797925,646.6973453181517 M-11.243184000227984,454.60022545782954 L247.9506294656886,606.5018927648503 M810.8864521508724,319.41881596406154 L811.3392423923784,279.5865346891569 M248.12425667797925,646.6973453181517 L810.8864521508724,319.41881596406154 M247.9506294656886,606.5018927648503 L811.3392423923784,279.5865346891569 M810.8864521508724,319.41881596406154 L551.9801461491005,172.76294843805618 M811.3392423923784,279.5865346891569 L552.1448188238086,133.09772147118736" stroke="black"  stroke-width="4"  fill="red"/></svg>