<svg viewBox="0 0 800 800" xmlns="http://www.w3.org/2000/svg"><path d="M520.7188567390069,176.0620319818283 L520.8614676289742,138.14610333641087 M520.7188567390069,176.0620319818283 L-20.07960006025064,484.72303777275016 M520.8614676289742,138.14610333641087 L-20.599011419595513,446.4237855448497 M-20.07960006025064,484.72303777275016 L-20.599011419595513,446.4237855448497 M575.9197548311536,174.08797106896242 L576.128867778659,136.1745420461284 M575.9197548311536,174.08797106896242 L569.5392459142056,171.77679936281712 M569.5392459142056,171.77679936281712 L562.5405188205773,170.15228951621486 M562.5405188205773,170.15228951621486 L555.1505066433126,169.26686228909773 M555.1505066433126,169.26686228909773 L547.6086585897299,169.14909878201917 M547.6086585897299,169.14909878201917 L540.1592786829999,169.80277601213956 M540.1592786829999,169.80277601213956 L533.0437651206314,171.20682129903687 M533.0437651206314,171.20682129903687 L526.4927347243593,173.31593483788748 M526.4927347243593,173.31593483788748 L520.7188567390069,176.0620319818283 M576.128867778659,136.1745420461284 L569.7406396181611,133.8662975997055 M569.7406396181611,133.8662975997055 L562.7334594705746,132.24384580881667 M562.7334594705746,132.24384580881667 L555.3345335432878,131.35954048407916 M555.3345335432878,131.35954048407916 L547.7835986214347,131.24192620141065 M547.7835986214347,131.24192620141065 L540.3252517276419,131.89477514975908 M540.3252517276419,131.89477514975908 L533.2011803482333,133.2970415814704 M533.2011803482333,133.2970415814704 L526.6422776095426,135.40348355952761 M526.6422776095426,135.40348355952761 L520.8614676289742,138.14610333641087 M520.7188567390069,176.0620319818283 L520.8620737525005,177.67842427676504 M520.8620737525005,177.67842427676504 L521.2960527978987,179.3822427961567 M521.2960527978987,179.3822427961567 L521.9990184059413,181.08811342080642 M521.9990184059413,181.08811342080642 L522.9357532183844,182.7105810628299 M522.9357532183844,182.7105810628299 L524.0593146706335,184.16835450969202 M524.0593146706335,184.16835450969202 L525.3134280503157,185.38839532151724 M525.3134280503157,185.38839532151724 L526.6352639787026,186.30954991924983 M526.6352639787026,186.30954991924983 L-14.044309888745715,495.1764669882176 M-20.07960006025064,484.72303777275016 L-19.909666304353095,486.35830187384767 M-19.909666304353095,486.35830187384767 L-19.450379482471476,488.08688522929106 M-19.450379482471476,488.08688522929106 L-18.72478298963631,489.8221736357627 M-18.72478298963631,489.8221736357627 L-17.769227426558473,491.47723986718466 M-17.769227426558473,491.47723986718466 L-16.631597378783738,492.9691607685278 M-16.631597378783738,492.9691607685278 L-15.36887146903996,494.22318848905445 M-15.36887146903996,494.22318848905445 L-14.044309888745715,495.1764669882176 M520.8614676289742,138.14610333641087 L521.0164191913102,136.69434646144396 M521.0164191913102,136.69434646144396 L521.4619890271813,135.48360131003375 M521.4619890271813,135.48360131003375 L522.1758878424962,134.57460222653077 M522.1758878424962,134.57460222653077 L523.1223875351122,134.01299623153716 M523.1223875351122,134.01299623153716 L524.2540560495884,133.8270038856324 M524.2540560495884,133.8270038856324 L525.514174911593,134.02604227835457 M525.514174911593,134.02604227835457 L526.8395463727072,134.60019025146505 M526.8395463727072,134.60019025146505 L-14.742791978369723,442.9443877650078 M-20.599011419595513,446.4237855448497 L-20.470911939993528,444.95988297801557 M-20.470911939993528,444.95988297801557 L-20.050917312572267,443.7444402588715 M-20.050917312572267,443.7444402588715 L-19.36003331708298,442.83842898656985 M-19.36003331708298,442.83842898656985 L-18.432832388055658,442.28734938124495 M-18.432832388055658,442.28734938124495 L-17.31577724437983,442.11889679544186 M-17.31577724437983,442.11889679544186 L-16.0648518651995,442.34161179870114 M-16.0648518651995,442.34161179870114 L-14.742791978369723,442.9443877650078 M-20.07960006025064,484.72303777275016 L-25.297503474706446,488.31144116916204 M-25.297503474706446,488.31144116916204 L-29.280420689518905,492.39454966114795 M-29.280420689518905,492.39454966114795 L-31.88655632986064,496.82835729184916 M-31.88655632986064,496.82835729184916 L-33.02252168728296,501.45624933373546 M-33.02252168728296,501.45624933373546 L-32.64677245795326,506.11447421770794 M-32.64677245795326,506.11447421770794 L-30.771319824264026,510.63791839666715 M-30.771319824264026,510.63791839666715 L-27.461421942414916,514.8659620785529 M-27.461421942414916,514.8659620785529 L-22.833493611710196,518.648253099037 M-20.599011419595513,446.4237855448497 L-25.823450613905038,450.00782033716706 M-25.823450613905038,450.00782033716706 L-29.811404261094367,454.0859604144952 M-29.811404261094367,454.0859604144952 L-32.420896880917894,458.51437585152456 M-32.420896880917894,458.51437585152456 L-33.55841824286921,463.136642949567 M-33.55841824286921,463.136642949567 L-33.182365747797235,467.7892094116849 M-33.182365747797235,467.7892094116849 L-31.30475808918561,472.30716214387144 M-31.30475808918561,472.30716214387144 L-27.990926847964147,476.53007589392115 M-27.990926847964147,476.53007589392115 L-23.357424041272225,480.307780193462 M-22.833493611710196,518.648253099037 L-23.357424041272225,480.307780193462 M579.8829291359652,176.0620319818283 L580.0968454709164,138.14610333641087 M579.8829291359652,176.0620319818283 L575.9197548311536,174.08797106896242 M580.0968454709164,138.14610333641087 L576.128867778659,136.1745420461284 M575.9197548311536,174.08797106896242 L575.773605365393,175.7093763775825 M575.773605365393,175.7093763775825 L575.3594071360733,177.42816117671492 M575.3594071360733,177.42816117671492 L574.6979512052499,179.1581994092125 M574.6979512052499,179.1581994092125 L573.8223373421854,180.8128432005464 M573.8223373421854,180.8128432005464 L572.7764831976904,182.30918563973955 M572.7764831976904,182.30918563973955 L571.6127556819292,183.5722510127182 M571.6127556819292,183.5722510127182 L570.3894650119746,184.53873489853868 M570.3894650119746,184.53873489853868 L563.8723848379966,182.38180052478546 M563.8723848379966,182.38180052478546 L556.1748455951638,181.03805975131502 M556.1748455951638,181.03805975131502 L548.1469093194967,180.77501457775594 M548.1469093194967,180.77501457775594 L540.2503315978697,181.60776534256797 M540.2503315978697,181.60776534256797 L532.9394625254099,183.4885727143991 M532.9394625254099,183.4885727143991 L526.6352639787026,186.30954991924983 M576.128867778659,136.1745420461284 L575.999460997682,134.72799341903556 M575.999460997682,134.72799341903556 L575.6007597733183,133.53238399850602 M575.6007597733183,133.53238399850602 L574.9527165465336,132.6476852804983 M574.9527165465336,132.6476852804983 L574.0877241783953,132.1183434741357 M574.0877241783953,132.1183434741357 L573.0491676785896,131.9709590345891 M573.0491676785896,131.9709590345891 L571.889081935605,132.21301117824692 M571.889081935605,132.21301117824692 L570.6656560138038,132.8324308592127 M570.6656560138038,132.8324308592127 L564.1378244013333,130.67921928649895 M564.1378244013333,130.67921928649895 L556.4276099943586,129.33779826973063 M556.4276099943586,129.33779826973063 L548.3864746443617,129.07520724734542 M548.3864746443617,129.07520724734542 L540.4769303839187,129.90652030696577 M540.4769303839187,129.90652030696577 L533.1540707998993,131.78408109793594 M533.1540707998993,131.78408109793594 L526.8395463727072,134.60019025146505 M-14.044309888745715,495.1764669882176 L-18.735839245321586,498.49419713451925 M-18.735839245321586,498.49419713451925 L-22.113410287834654,502.3077633487059 M-22.113410287834654,502.3077633487059 L-24.020126951721352,506.44145977819034 M-24.020126951721352,506.44145977819034 L-24.366777220753704,510.70454749464 M-24.366777220753704,510.70454749464 L-23.13606695382674,514.8999921075981 M-23.13606695382674,514.8999921075981 L-20.38370934730358,518.8336025738934 M-20.38370934730358,518.8336025738934 L-16.23601098736401,522.3229915470073 M573.9665218962693,186.30954991924983 L570.3894650119746,184.53873489853868 M-16.23601098736401,522.3229915470073 L-14.60548248148757,523.3451724438769 M814.0408664043186,321.95900220967457 L573.9665218962693,186.30954991924983 M-14.60548248148757,523.3451724438769 L225.47130872528905,665.0358448969653 M815.7039368855408,322.95527049471195 L814.0408664043186,321.95900220967457 M225.47130872528905,665.0358448969653 L229.1192258030671,666.919119489141 M814.9570607161031,349.5082430168721 L819.4293448757214,346.25324087265506 M819.4293448757214,346.25324087265506 L822.5707806013768,342.5151617324033 M822.5707806013768,342.5151617324033 L824.2368892021991,338.4673715009186 M824.2368892021991,338.4673715009186 L824.3517766076,334.2973203774716 M824.3517766076,334.2973203774716 L822.9113520385947,330.1978321739265 M822.9113520385947,330.1978321739265 L819.983349501224,326.35814448693753 M819.983349501224,326.35814448693753 L815.7039368855408,322.95527049471195 M229.1192258030671,666.919119489141 L235.79335425316424,669.2142259882072 M235.79335425316424,669.2142259882072 L243.7065582710438,670.6447079769424 M243.7065582710438,670.6447079769424 L251.98505695993435,670.9247927526545 M251.98505695993435,670.9247927526545 L260.1491901089403,670.0381646549827 M260.1491901089403,670.0381646549827 L267.7259257283681,668.0363910485269 M267.7259257283681,668.0363910485269 L274.27666133764797,665.0358448969653 M274.27666133764797,665.0358448969653 L814.9570607161031,349.5082430168721 M616.2002974474806,245.4103619278877 L606.2444631234055,240.43485993711772 M606.2444631234055,240.43485993711772 L595.2902202998898,236.2084385362971 M595.2902202998898,236.2084385362971 L583.5094123282097,232.79647191968974 M583.5094123282097,232.79647191968974 L571.0863684880594,230.25167702748516 M571.0863684880594,230.25167702748516 L558.2151695239213,228.61330564822308 M558.2151695239213,228.61330564822308 L545.0966118529332,227.90661532405812 M545.0966118529332,227.90661532405812 L531.9352498135477,228.14247587410773 M531.9352498135477,228.14247587410773 L518.9362293768017,229.31728609111417 M518.9362293768017,229.31728609111417 L506.30227782835095,231.41289931315328 M506.30227782835095,231.41289931315328 L494.2306093807944,234.3970454442391 M494.2306093807944,234.3970454442391 L482.90996231503107,238.22363529726704 M482.90996231503107,238.22363529726704 L472.5177333945426,242.83352849637083 M472.5177333945426,242.83352849637083 L463.21719811688706,248.155356927686 M463.21719811688706,248.155356927686 L455.15503842847403,254.10656465298595 M455.15503842847403,254.10656465298595 L448.4589932503383,260.5946452828636 M448.4589932503383,260.5946452828636 L443.235823728913,267.51847379167157 M443.235823728913,267.51847379167157 L439.5695625564804,274.769888590563 M439.5695625564804,274.769888590563 L437.5200180898601,282.2352645344205 M437.5200180898601,282.2352645344205 L437.1218600026157,289.7973155114605 M437.1218600026157,289.7973155114605 L438.383756953386,297.3368744331756 M438.383756953386,297.3368744331756 L441.28819699355205,304.7347860556595 M441.28819699355205,304.7347860556595 L445.79155452360914,311.87381274426366 M445.79155452360914,311.87381274426366 L451.82468298082773,318.64048355286855 M451.82468298082773,318.64048355286855 L459.2938802468185,324.9269586811475 M459.2938802468185,324.9269586811475 L468.08224214720497,330.63281701537767 M468.08224214720497,330.63281701537767 L478.0514741543191,335.6666923157358 M478.0514741543191,335.6666923157358 L489.04404696332443,339.9478133540964 M489.04404696332443,339.9478133540964 L500.88572172330373,343.40736321176576 M500.88572172330373,343.40736321176576 L513.3882954016507,345.9896569404158 M513.3882954016507,345.9896569404158 L526.3527087282637,347.65308434222425 M526.3527087282637,347.65308434222425 L539.5723148387476,348.37080493661176 M539.5723148387476,348.37080493661176 L552.8362287237442,348.1312416484375 M552.8362287237442,348.1312416484375 L565.9328455915227,346.9382575010343 M565.9328455915227,346.9382575010343 L578.6532936314866,344.81110879247524 M578.6532936314866,344.81110879247524 L590.7949248018554,341.7840854525308 M590.7949248018554,341.7840854525308 L602.1646169329542,337.90593991269515 M602.1646169329542,337.90593991269515 L612.5818929300033,333.2390657898669 M612.5818929300033,333.2390657898669 L621.8818953022385,327.85840673364504 M621.8818953022385,327.85840673364504 L629.9179757307979,321.850215270973 M629.9179757307979,321.850215270973 L636.5640423926791,315.31058294882587 M636.5640423926791,315.31058294882587 L641.7164732787762,308.3438602737846 M641.7164732787762,308.3438602737846 L645.2956683582945,301.0609350539669 M645.2956683582945,301.0609350539669 L647.2472887686706,293.57737360939103 M647.2472887686706,293.57737360939103 L647.5428297197434,286.0116374181748 M647.5428297197434,286.0116374181748 L646.1800851901405,278.4830956957444 M646.1800851901405,278.4830956957444 L643.1828849149481,271.1102257804691 M643.1828849149481,271.1102257804691 L638.6006762238685,264.00870034299135 M638.6006762238685,264.00870034299135 L632.507541508518,257.289636257467 M632.507541508518,257.289636257467 L625.0010026569846,251.0578601211984 M625.0010026569846,251.0578601211984 L616.2002974474806,245.4103619278877 M-22.833493611710196,518.648253099037 L-22.649215890052403,520.1150646302176 M-22.649215890052403,520.1150646302176 L-22.148049083867818,521.3433847664617 M-22.148049083867818,521.3433847664617 L-21.355204717313597,522.2716586424923 M-21.355204717313597,522.2716586424923 L-20.31045834106692,522.8533665113725 M-20.31045834106692,522.8533665113725 L-19.066265915249915,523.0594443947483 M-19.066265915249915,523.0594443947483 L-17.68503583274702,522.8796229883825 M-17.68503583274702,522.8796229883825 L-16.23601098736401,522.3229915470073 M-14.742791978369723,442.9443877650078 L-19.442340094028168,446.2566136631079 M-19.442340094028168,446.2566136631079 L-22.8257509617427,450.0638559213165 M-22.8257509617427,450.0638559213165 L-24.73585606427656,454.19070103795286 M-24.73585606427656,454.19070103795286 L-25.08328312077424,458.446726807289 M-25.08328312077424,458.446726807289 L-23.850697838799874,462.63522531595436 M-23.850697838799874,462.63522531595436 L-21.093896106938928,466.56232659328964 M-21.093896106938928,466.56232659328964 L-16.939386860452487,470.0459442243776 M574.2486261546567,134.60019025146505 L570.6656560138038,132.8324308592127 M-16.939386860452487,470.0459442243776 L-15.30616441530043,471.0664349579746 M814.7236828092775,270.0175632667647 L574.2486261546567,134.60019025146505 M-15.30616441530043,471.0664349579746 L225.17134364692382,612.5249831557496 M816.3895559941448,271.0121415982942 L814.7236828092775,270.0175632667647 M225.17134364692382,612.5249831557496 L228.8254107658993,614.4052013562313 M815.6426146356296,297.52015086524517 L820.1221848623422,294.2706524537172 M820.1221848623422,294.2706524537172 L823.2686712694049,290.5388966501911 M823.2686712694049,290.5388966501911 L824.9373642092032,286.4979570283138 M824.9373642092032,286.4979570283138 L825.0522538530965,282.33496709215143 M825.0522538530965,282.33496709215143 L823.6092533958026,278.24242421116577 M823.6092533958026,278.24242421116577 L820.6762197101266,274.40924494988036 M820.6762197101266,274.40924494988036 L816.3895559941448,271.0121415982942 M228.8254107658993,614.4052013562313 L235.51081551019303,616.696584120225 M235.51081551019303,616.696584120225 L243.43741550620464,618.1247457679829 M243.43741550620464,618.1247457679829 L251.72995076827212,618.4043762779344 M251.72995076827212,618.4043762779344 L259.90794478861886,617.5191862479774 M259.90794478861886,617.5191862479774 L267.4975596336129,615.5206600385894 M267.4975596336129,615.5206600385894 L274.0594452464179,612.5249831557496 M274.0594452464179,612.5249831557496 L815.6426146356296,297.52015086524517 M533.0377732191994,166.5720469499301 L42.608171211138085,446.4401738614127 M42.608171211138085,446.4401738614127 L268.23654480776844,578.670668419904 M268.23654480776844,578.670668419904 L758.666677910564,294.09064870396975 M758.666677910564,294.09064870396975 L533.0377732191994,166.5720469499301 M-23.357424041272225,480.307780193462 L-23.215320854275376,478.6723130274 M-23.215320854275376,478.6723130274 L-22.75371160128617,476.95416070462426 M-22.75371160128617,476.95416070462426 L-21.995748312080536,475.2395539610212 M-21.995748312080536,475.2395539610212 L-20.979415290519228,473.61452264204297 M-20.979415290519228,473.61452264204297 L-19.75574402929027,472.160650964965 M-19.75574402929027,472.160650964965 L-18.386156131422013,470.9508940106339 M-18.386156131422013,470.9508940106339 L-16.939386860452487,470.0459442243776 M-22.833493611710196,518.648253099037 L-21.024935285144977,519.7861176429354 M-23.357424041272225,480.307780193462 L-21.546675188755728,481.4442653068255 M-21.024935285144977,519.7861176429354 L-21.546675188755728,481.4442653068255 M820.1969666308748,311.73020940019774 L820.7049658352016,273.6439564107954 M820.1969666308748,311.73020940019774 L579.8829291359652,176.0620319818283 M820.7049658352016,273.6439564107954 L580.0968454709164,138.14610333641087 M579.8829291359652,176.0620319818283 L579.7269400395164,177.6784178638399 M579.7269400395164,177.6784178638399 L579.2840658315804,179.38223638271307 M579.2840658315804,179.38223638271307 L578.5765160031817,181.0881198348632 M578.5765160031817,181.0881198348632 L577.6397924442533,182.7105810628299 M577.6397924442533,182.7105810628299 L576.5207927324618,184.16835450969202 M576.5207927324618,184.16835450969202 L575.275585750674,185.38838890537352 M575.275585750674,185.38838890537352 L573.9665218962693,186.30954991924983 M580.0968454709164,138.14610333641087 L579.9579750973826,136.69434005729443 M579.9579750973826,136.69434005729443 L579.5309261988798,135.48359490598995 M579.5309261988798,135.48359490598995 L578.837048777433,134.57460863062795 M578.837048777433,134.57460863062795 L577.9111224969099,134.01299623153716 M577.9111224969099,134.01299623153716 L576.7995033553375,133.8270038856325 M576.7995033553375,133.8270038856325 L575.5579265324589,134.02603587320823 M575.5579265324589,134.02603587320823 L574.2486261546567,134.60019025146505 M-21.024935285144977,519.7861176429354 L-20.845222825934115,521.250083846879 M-20.845222825934115,521.250083846879 L-20.357273005687148,522.4698750935349 M-20.357273005687148,522.4698750935349 L-19.5856702994663,523.3843851095103 M-19.5856702994663,523.3843851095103 L-18.569120859355905,523.9477794220704 M-18.569120859355905,523.9477794220704 L-17.358637989242652,524.1319023200076 M-17.358637989242652,524.1319023200076 L-16.01497532859048,523.9276018452015 M-16.01497532859048,523.9276018452015 L-14.60548248148757,523.3451724438769 M820.1969666308748,311.73020940019774 L820.0244164851317,313.3522213823042 M820.0244164851317,313.3522213823042 L819.5564641493484,315.0589030774376 M819.5564641493484,315.0589030774376 L818.8166313246618,316.7647099832408 M818.8166313246618,316.7647099832408 L817.841952809081,318.3842159510406 M817.841952809081,318.3842159510406 L816.6812536423142,319.8362662613672 M816.6812536423142,319.8362662613672 L815.3927131962303,321.0481030804338 M815.3927131962303,321.0481030804338 L814.0408664043186,321.95900220967457 M-21.024935285144977,519.7861176429354 L219.28799342056791,661.6217778267782 M219.28799342056791,661.6217778267782 L219.4512341527106,663.0882025330015 M219.4512341527106,663.0882025330015 L219.91436890533083,664.3015125333359 M219.91436890533083,664.3015125333359 L220.65411454417352,665.2008944020985 M220.65411454417352,665.2008944020985 L221.63327190085397,665.7413348350486 M221.63327190085397,665.7413348350486 L222.80272907208504,665.8957933912072 M222.80272907208504,665.8957933912072 L224.10380886173954,665.6566154836562 M224.10380886173954,665.6566154836562 L225.47130872528905,665.0358448969653 M822.0419728618162,312.83828439063166 L821.864756542561,314.4575504347025 M821.864756542561,314.4575504347025 L821.3832946836303,316.15599635687454 M821.3832946836303,316.15599635687454 L820.6217526423995,317.84850902656245 M820.6217526423995,317.84850902656245 L819.6182581839162,319.4503213273158 M819.6182581839162,319.4503213273158 L818.4231095683419,320.88115284332986 M818.4231095683419,320.88115284332986 L817.0961796923214,322.0693229354786 M817.0961796923214,322.0693229354786 L815.7039368855408,322.95527049471195 M822.0419728618162,312.83828439063166 L820.1969666308748,311.73020940019774 M219.28799342056791,661.6217778267782 L223.32969305051455,663.7231593395431 M223.32969305051455,663.7231593395431 L223.4828953544657,665.1841862480982 M223.4828953544657,665.1841862480982 L223.91678114454945,666.3814180481826 M223.91678114454945,666.3814180481826 L224.60951402771067,667.2548601004335 M224.60951402771067,667.2548601004335 L225.52634766901053,667.7607520354147 M225.52634766901053,667.7607520354147 L226.62120826665247,667.873821741458 M226.62120826665247,667.873821741458 L227.83919523718995,667.5884857342558 M227.83919523718995,667.5884857342558 L229.1192258030671,666.919119489141 M821.1215212993545,346.0225253232188 L820.9486107896082,347.47703028611846 M820.9486107896082,347.47703028611846 L820.4798238995752,348.6861037755405 M820.4798238995752,348.6861037755405 L819.7387368766374,349.5891495125253 M819.7387368766374,349.5891495125253 L818.7625568214642,350.14093453380576 M818.7625568214642,350.14093453380576 L817.6002906828262,350.3138730768745 M817.6002906828262,350.3138730768745 L816.3102305816899,350.09936765690355 M816.3102305816899,350.09936765690355 L814.9570607161031,349.5082430168721 M821.1215212993545,346.0225253232188 L826.1000359614195,342.49897306121403 M826.1000359614195,342.49897306121403 L829.8242302039807,338.4935607759268 M829.8242302039807,338.4935607759268 L832.1628823849544,334.1488226254259 M832.1628823849544,334.1488226254259 L833.0342054188329,329.6191097215925 M833.0342054188329,329.6191097215925 L832.4085758439307,325.0650729293734 M832.4085758439307,325.0650729293734 L830.3094643690774,320.64794486821296 M830.3094643690774,320.64794486821296 L826.8123562744563,316.5238481789574 M826.8123562744563,316.5238481789574 L822.0419728618162,312.83828439063166 M223.32969305051455,663.7231593395431 L229.860856917839,666.1847893489538 M229.860856917839,666.1847893489538 L237.04936263729635,667.9159568550377 M237.04936263729635,667.9159568550377 L244.6604499360042,668.8598305643495 M244.6604499360042,668.8598305643495 L252.44535560254255,668.9853842362596 M252.44535560254255,668.9853842362596 L260.14955035745226,668.2885150907401 M260.14955035745226,668.2885150907401 L267.52113129082863,666.7921047175308 M267.52113129082863,666.7921047175308 L274.319329099758,664.5452880226122 M274.319329099758,664.5452880226122 L280.3222329287419,661.6217778267782 M280.3222329287419,661.6217778267782 L280.1760394164779,663.0881957084189 M280.1760394164779,663.0881957084189 L279.73256073925324,664.3015057086701 M279.73256073925324,664.3015057086701 L279.0141052330825,665.2009012266756 M279.0141052330825,665.2009012266756 L278.05674677663075,665.7413348350486 M278.05674677663075,665.7413348350486 L276.90855031249765,665.8957933912073 M276.90855031249765,665.8957933912073 L275.62710404809764,665.6566086602854 M275.62710404809764,665.6566086602854 L274.27666133764797,665.0358448969653 M280.3222329287419,661.6217778267782 L821.1215212993545,346.0225253232188 M616.3178010666838,228.1590255144243 L624.6164876390096,233.43736609448644 M624.6164876390096,233.43736609448644 L631.7819543819207,239.23496556186592 M631.7819543819207,239.23496556186592 L637.7140737072384,245.47234898503552 M637.7140737072384,245.47234898503552 L642.3293259649165,252.06387278642453 M642.3293259649165,252.06387278642453 L645.5621915650165,258.91876388094823 M645.5621915650165,258.91876388094823 L647.3660429625327,265.94238741291514 M647.3660429625327,265.94238741291514 L647.6867288388828,273.4854796068681 M647.6867288388828,273.4854796068681 L646.3546531244547,280.9910511309326 M646.3546531244547,280.9910511309326 L643.3883584640307,288.34102639989715 M643.3883584640307,288.34102639989715 L638.8322296024326,295.41944799155334 M638.8322296024326,295.41944799155334 L632.7559558342944,302.1143166208497 M632.7559558342944,302.1143166208497 L625.2534914227087,308.3194439486363 M625.2534914227087,308.3194439486363 L616.4417306758282,313.93615784884094 M616.4417306758282,313.93615784884094 L606.4587255557274,318.87491572278924 M606.4587255557274,318.87491572278924 L595.4614699020542,323.0568618628478 M595.4614699020542,323.0568618628478 L583.6234919505323,326.4150839505408 M583.6234919505323,326.4150839505408 L571.132014772393,328.89578697624165 M571.132014772393,328.89578697624165 L558.1849916567714,330.4591735490904 M558.1849916567714,330.4591735490904 L544.9877989074544,331.08015642933265 M544.9877989074544,331.08015642933265 L531.7499458644961,330.7487600425802 M531.7499458644961,330.7487600425802 L518.6815845858416,329.47031151764133 M518.6815845858416,329.47031151764133 L505.99010539252987,327.26532878092564 M505.99010539252987,327.26532878092564 L493.87670122359066,324.16918861913825 M493.87670122359066,324.16918861913825 L482.5330799012024,320.23151617505425 M482.5330799012024,320.23151617505425 L472.138409985449,315.515329880248 M472.138409985449,315.515329880248 L462.8563514058695,310.09600084090357 M462.8563514058695,310.09600084090357 L454.83252474078887,304.05995837880073 M454.83252474078887,304.05995837880073 L448.1922114057363,297.5032502069716 M448.1922114057363,297.5032502069716 L443.03840965599267,290.52997088072806 M443.03840965599267,290.52997088072806 L439.45032239132195,283.2505328263497 M439.45032239132195,283.2505328263497 L437.48219372033816,275.77988556806156 M437.48219372033816,275.77988556806156 L437.16260761971466,268.23566687585674 M437.16260761971466,268.23566687585674 L438.49418105374167,260.7363219841514 M438.49418105374167,260.7363219841514 L441.45365116075993,253.39925125002472 M441.45365116075993,253.39925125002472 L445.9238914499888,246.42813132260056 M445.9238914499888,246.42813132260056 L451.86276444138804,239.83244616405406 M451.86276444138804,239.83244616405406 L459.17813855737654,233.7119610598789 M459.17813855737654,233.7119610598789 L467.75732251002154,228.1590255144243 M467.75732251002154,228.1590255144243 L477.4688464082387,223.25725632381995 M477.4688464082387,223.25725632381995 L488.16451730920573,219.0802790825014 M488.16451730920573,219.0802790825014 L499.6815905688546,215.69076735582868 M499.6815905688546,215.69076735582868 L511.84535147084864,213.13945035720607 M511.84535147084864,213.13945035720607 L524.3742635137139,211.47386633040117 M524.3742635137139,211.47386633040117 L537.1719165325476,210.69592958290136 M537.1719165325476,210.69592958290136 L550.047778195327,210.8170613211577 M550.047778195327,210.8170613211577 L562.3076358815435,211.77805831505552 M562.3076358815435,211.77805831505552 L574.2945379438479,213.55349508929535 M574.2945379438479,213.55349508929535 L585.8437636569502,216.11927378220486 M585.8437636569502,216.11927378220486 L596.7963589703309,219.44053845761803 M596.7963589703309,219.44053845761803 L607.0013958891991,223.47208689270673 M607.0013958891991,223.47208689270673 L616.3178010666838,228.1590255144243 M616.3178010666838,228.1590255144243 L616.2002974474806,245.4103619278877 M-21.546675188755728,481.4442653068255 L-21.408965869542953,479.80584497914157 M-21.408965869542953,479.80584497914157 L-20.960424054379132,478.0790700066638 M-20.960424054379132,478.0790700066638 L-20.22358428328215,476.3506257010979 M-20.22358428328215,476.3506257010979 L-19.235368498763023,474.70723161220343 M-19.235368498763023,474.70723161220343 L-18.045369487079597,473.2313827105724 M-18.045369487079597,473.2313827105724 L-16.713354909493432,471.9971517890593 M-16.713354909493432,471.9971517890593 L-15.30616441530043,471.0664349579746 M820.7049658352016,273.6439564107954 L820.5733244737341,272.18404069879483 M820.5733244737341,272.18404069879483 L820.1437805214721,270.963079310396 M820.1437805214721,270.963079310396 L819.4378617312275,270.042293347371 M819.4378617312275,270.042293347371 L818.4908643426161,269.46794729155044 M818.4908643426161,269.46794729155044 L817.3502252708192,269.2688885169555 M817.3502252708192,269.2688885169555 L816.0731555293025,269.45518230393304 M816.0731555293025,269.45518230393304 L814.7236828092775,270.0175632667647 M-21.546675188755728,481.4442653068255 L219.06033094698708,623.1095676377388 M219.06033094698708,623.1095676377388 L219.20535840133164,621.4598245783997 M219.20535840133164,621.4598245783997 L219.651668583505,619.7134864131843 M219.651668583505,619.7134864131843 L220.37689390712046,617.9581885862575 M220.37689390712046,617.9581885862575 L221.34460306397855,616.2820604037926 M221.34460306397855,616.2820604037926 L222.5062580488241,614.7692025579336 M222.5062580488241,614.7692025579336 L223.8035328334485,613.4955528399091 M223.8035328334485,613.4955528399091 L225.17134364692382,612.5249831557496 M822.5522518875,274.7506521470398 L822.4161227149436,273.28788267628283 M822.4161227149436,273.28788267628283 L821.9732248121559,272.0585917663663 M821.9732248121559,272.0585917663663 L821.2457196424045,271.12443787398934 M821.2457196424045,271.12443787398934 L820.2699890907274,270.5323489427755 M820.2699890907274,270.5323489427755 L819.0949391872102,270.31204913633815 M819.0949391872102,270.31204913633815 L817.7794736479084,270.47468129564106 M817.7794736479084,270.47468129564106 L816.3895559941448,271.0121415982942 M822.5522518875,274.7506521470398 L820.7049658352016,273.6439564107954 M219.06033094698708,623.1095676377388 L223.10702630173745,625.2084488990878 M223.10702630173745,625.2084488990878 L223.2424064236009,623.5531127675968 M223.2424064236009,623.5531127675968 L223.65980909056327,621.7905269093034 M223.65980909056327,621.7905269093034 L224.3382917532463,620.0091564560671 M224.3382917532463,620.0091564560671 L225.2438600145488,618.2983917250174 M225.2438600145488,618.2983917250174 L226.33100467178528,616.7441061063386 M226.33100467178528,616.7441061063386 L227.54517456497837,615.424309113841 M227.54517456497837,615.424309113841 L228.8254107658993,614.4052013562313 M821.6317726456375,307.89367683313685 L821.4999463506335,306.2630345871226 M821.4999463506335,306.2630345871226 L821.0697190457847,304.54192512417507 M821.0697190457847,304.54192512417507 L820.362663213981,302.81672352976506 M820.362663213981,302.81672352976506 L819.4142405331531,301.17401403358787 M819.4142405331531,301.17401403358787 L818.2720663563459,299.6962451372072 M818.2720663563459,299.6962451372072 L816.9934643550328,298.457578807348 M816.9934643550328,298.457578807348 L815.6426146356296,297.52015086524517 M821.6317726456375,307.89367683313685 L826.6162366780136,304.3744927839607 M826.6162366780136,304.3744927839607 L830.3448335767889,300.3740484454367 M830.3448335767889,300.3740484454367 L832.6861874946826,296.0347019533881 M832.6861874946826,296.0347019533881 L833.5584182428693,291.5106134048824 M833.5584182428693,291.5106134048824 L832.9318732659026,286.9622344116375 M832.9318732659026,286.9622344116375 L830.8300588562252,282.55059716340406 M830.8300588562252,282.55059716340406 L827.3285587733576,278.43162978797943 M827.3285587733576,278.43162978797943 L822.5522518875,274.7506521470398 M223.10702630173745,625.2084488990878 L229.64627846604762,627.6671509089485 M229.64627846604762,627.6671509089485 L236.8437021715478,629.396259837019 M236.8437021715478,629.396259837019 L244.46424485432084,630.3390113584978 M244.46424485432084,630.3390113584978 L252.25883290363228,630.4644157679913 M252.25883290363228,630.4644157679913 L259.9726189848619,629.768375115089 M259.9726189848619,629.768375115089 L267.3533851579294,628.2737440489371 M267.3533851579294,628.2737440489371 L274.16006093666397,626.0295995909755 M274.16006093666397,626.0295995909755 L280.1704579463547,623.1095676377388 M280.1704579463547,623.1095676377388 L280.0117794940862,621.4598177625949 M280.0117794940862,621.4598177625949 L279.55597710520146,619.7134795979208 M279.55597710520146,619.7134795979208 L278.8259068073716,617.9581954008728 M278.8259068073716,617.9581954008728 L277.8581859810115,616.2820604037926 M277.8581859810115,616.2820604037926 L276.70139934245464,614.7692025579336 M276.70139934245464,614.7692025579336 L275.4136050639521,613.4955460275386 M275.4136050639521,613.4955460275386 L274.0594452464179,612.5249831557496 M280.1704579463547,623.1095676377388 L821.6317726456375,307.89367683313685 M532.8944255548654,201.10065135295406 L511.84535147084864,213.13945035720607 M441.45365116075993,253.39925125002472 L441.6029435300409,251.6424830021722 M441.6029435300409,251.6424830021722 L442.03094175301527,249.7897842306468 M442.03094175301527,249.7897842306468 L442.68037291523245,247.95363067769287 M442.68037291523245,247.95363067769287 L443.79437614214885,245.60132085267952 M443.79437614214885,245.60132085267952 L445.3106212983123,243.06901470247587 M445.3106212983123,243.06901470247587 L447.6144819891416,239.92663211586756 M447.6144819891416,239.92663211586756 L451.4168094793185,235.7015654059027 M451.4168094793185,235.7015654059027 L457.48515682080455,230.25855985231567 M457.48515682080455,230.25855985231567 L465.3675493096909,224.45588364736295 M465.3675493096909,224.45588364736295 L470.68592654302586,221.01361964164104 M470.68592654302586,221.01361964164104 L476.01343275972073,217.82572631629176 M476.01343275972073,217.82572631629176 L481.99613462395854,214.51548448953713 M481.99613462395854,214.51548448953713 L487.9625903265739,211.53276768996196 M487.9625903265739,211.53276768996196 L492.25733979264334,209.65013019217605 M492.25733979264334,209.65013019217605 L496.50771757471836,208.09862319143838 M496.50771757471836,208.09862319143838 L502.5097763484737,206.73816879234232 M502.5097763484737,206.73816879234232 L506.74867561139536,206.83963418225898 M506.74867561139536,206.83963418225898 L509.32512592710697,207.8558237615784 M509.32512592710697,207.8558237615784 L510.82021844425765,209.33561458749904 M510.82021844425765,209.33561458749904 L511.5531462052519,210.92342296232997 M511.5531462052519,210.92342296232997 L511.77331526970994,211.97672960509183 M511.77331526970994,211.97672960509183 L511.84535147084864,213.13945035720607 M441.45365116075993,253.39925125002472 L43.01011796651062,481.2848861013909 M43.01011796651062,481.2848861013909 L42.608171211138085,446.4401738614127 M532.8944255548654,201.10065135295406 L533.0377732191994,166.5720469499301 M268.3876874025604,613.6608345211275 L268.23654480776844,578.670668419904 M43.01011796651062,481.2848861013909 L268.3876874025604,613.6608345211275 M758.2725237276175,328.7646739846003 L758.666677910564,294.09064870396975 M268.3876874025604,613.6608345211275 L758.2725237276175,328.7646739846003 M758.2725237276175,328.7646739846003 L647.3660429625327,265.94238741291514 M647.3660429625327,265.94238741291514 L647.1298430247241,263.2333895178931 M647.1298430247241,263.2333895178931 L646.7149266843724,261.3918898953931 M646.7149266843724,261.3918898953931 L646.0034249161733,259.227875106494 M646.0034249161733,259.227875106494 L644.7298059701911,256.3721684341516 M644.7298059701911,256.3721684341516 L642.9522784650524,253.28715505667645 M642.9522784650524,253.28715505667645 L640.9118514399945,250.39334814645818 M640.9118514399945,250.39334814645818 L637.9192524057153,246.86487461526755 M637.9192524057153,246.86487461526755 L633.0922672057368,242.24857102468798 M633.0922672057368,242.24857102468798 L626.5448308788759,237.25314015410186 M626.5448308788759,237.25314015410186 L622.0074392470008,234.3218956134904 M622.0074392470008,234.3218956134904 L617.4533865339822,231.64935049327687 M617.4533865339822,231.64935049327687 L580.0281839264524,210.4739070675798 M550.047778195327,210.8170613211577 L550.3142045516088,208.40191333329656 M550.3142045516088,208.40191333329656 L550.7460991543544,207.04565688498826 M550.7460991543544,207.04565688498826 L551.4744638716761,205.70312818823152 M551.4744638716761,205.70312818823152 L552.7658406945557,204.30698586537233 M552.7658406945557,204.30698586537233 L554.5573930042201,203.24933592642117 M554.5573930042201,203.24933592642117 L556.6064781877237,202.6758603680504 M556.6064781877237,202.6758603680504 L559.6040068671969,202.54311432727883 M559.6040068671969,202.54311432727883 L564.4283840468458,203.39365282508606 M564.4283840468458,203.39365282508606 L570.9620331013646,205.803063769301 M570.9620331013646,205.803063769301 L575.486964761265,208.00011966304427 M575.486964761265,208.00011966304427 L580.0281839264524,210.4739070675798 M550.047778195327,210.8170613211577 L532.8944255548654,201.10065135295406 M219.28799342056791,661.6217778267782 L219.06033094698708,623.1095676377388 M822.0419728618162,312.83828439063166 L822.5522518875,274.7506521470398 M223.32969305051455,663.7231593395431 L223.10702630173745,625.2084488990878 M821.1215212993545,346.0225253232188 L821.6317726456375,307.89367683313685 M280.3222329287419,661.6217778267782 L280.1704579463547,623.1095676377388 M617.4533865339822,231.64935049327687 L611.9663557208946,226.39610333637359 M611.9663557208946,226.39610333637359 L605.3658865171724,221.5794500308597 M605.3658865171724,221.5794500308597 L597.7586762840308,217.27613925343732 M597.7586762840308,217.27613925343732 L589.26729215869,213.5546035362779 M589.26729215869,213.5546035362779 L580.0281839264524,210.4739070675798" stroke="black"  stroke-width="4"  fill="red"/>
<path d="M616.3178010666838,228.1590255144243 L615.8485598095626,297.05085063912594 M615.8485598095626,297.05085063912594 L605.9092117629996,292.0669071865882 M605.9092117629996,292.0669071865882 L594.9730707139418,287.8333110645119 M594.9730707139418,287.8333110645119 L583.2116975589165,284.4155495518327 M583.2116975589165,284.4155495518327 L570.8091198530701,281.86643095217113 M570.8091198530701,281.86643095217113 L557.959101673961,280.22527518302047 M557.959101673961,280.22527518302047 L544.8621125909353,279.5173836712705 M544.8621125909353,279.5173836712705 L531.7223745038898,279.753645134048 M531.7223745038898,279.753645134048 L518.7447002591516,280.9304521013543 M518.7447002591516,280.9304521013543 L506.1314879750716,283.02962637214205 M506.1314879750716,283.02962637214205 L494.07963144403794,286.01884180570005 M494.07963144403794,286.01884180570005 L482.7775618817437,289.8519292747308 M482.7775618817437,289.8519292747308 L472.4023868333236,294.4696459991123 M472.4023868333236,294.4696459991123 L463.11711483799934,299.8005005480047 M463.11711483799934,299.8005005480047 L455.0681871217966,305.76179468855844 M455.0681871217966,305.76179468855844 L448.38313197559665,312.26086303461597 M448.38313197559665,312.26086303461597 L443.1685334182577,319.1964072916941 M443.1685334182577,319.1964072916941 L439.5082835349267,326.46008116724107 M439.5082835349267,326.46008116724107 L437.4620892600465,333.9380661725176 M437.4620892600465,333.9380661725176 L437.06455978761994,341.5128773597946 M437.06455978761994,341.5128773597946 L438.3243459487494,349.0651463791816 M438.3243459487494,349.0651463791816 L441.2239612203176,356.47551751071927 M441.2239612203176,356.47551751071927 L445.71984887321025,363.6265566133151 M445.71984887321025,363.6265566133151 L451.7429739618017,370.4046032462072 M451.7429739618017,370.4046032462072 L459.19978737610137,376.70163815206274 M459.19978737610137,376.70163815206274 L467.97357728692356,382.4170736588226 M467.97357728692356,382.4170736588226 L477.9262779661757,387.45939244777566 M477.9262779661757,387.45939244777566 L488.90062183255145,391.7476900959358 M488.90062183255145,391.7476900959358 L500.72266045846015,395.2130364718591 M500.72266045846015,395.2130364718591 L513.204505265948,397.79965519920586 M513.204505265948,397.79965519920586 L526.147430130211,399.4658678665604 M526.147430130211,399.4658678665604 L539.3451343567046,400.1847900396007 M539.3451343567046,400.1847900396007 L552.5870862872985,399.9448256965375 M552.5870862872985,399.9448256965375 L565.6620355179232,398.74984418196453 M565.6620355179232,398.74984418196453 L578.3614596240395,396.61913331647185 M578.3614596240395,396.61913331647185 L590.4830488689199,393.5870392091349 M590.4830488689199,393.5870392091349 L601.834002580706,389.70239427090405 M601.834002580706,389.70239427090405 L612.234142991236,385.02769465783945 M612.234142991236,385.02769465783945 L621.5188847153634,379.6380074517965 M621.5188847153634,379.6380074517965 L629.5418199881497,373.61972760203673 M629.5418199881497,373.61972760203673 L636.177062147249,367.0691057843631 M636.177062147249,367.0691057843631 L641.3211559119761,360.0906658630873 M641.3211559119761,360.0906658630873 L644.8946271850477,352.7954804969435 M644.8946271850477,352.7954804969435 L646.843220465491,345.2993093518188 M646.843220465491,345.2993093518188 L647.1384711238745,337.720812837318 M647.1384711238745,337.720812837318 L645.7781696851769,330.17956138775446 M645.7781696851769,330.17956138775446 L642.7860996105537,322.7942328183423 M642.7860996105537,322.7942328183423 L638.2116201795423,315.68069626643467 M638.2116201795423,315.68069626643467 L632.1286858993526,308.9502580226815 M632.1286858993526,308.9502580226815 L624.6346531860936,302.70792399935596 M624.6346531860936,302.70792399935596 L615.8485598095626,297.05085063912594 M616.3178010666838,228.1590255144243 L624.6164876390096,233.43736609448644 M624.6164876390096,233.43736609448644 L631.7819543819207,239.23496556186592 M631.7819543819207,239.23496556186592 L637.7140737072384,245.47234898503552 M637.7140737072384,245.47234898503552 L642.3293259649165,252.06387278642453 M642.3293259649165,252.06387278642453 L645.5621915650165,258.91876388094823 M645.5621915650165,258.91876388094823 L647.3660429625327,265.94238741291514 M647.3660429625327,265.94238741291514 L647.6867288388828,273.4854796068681 M647.6867288388828,273.4854796068681 L646.3546531244547,280.9910511309326 M646.3546531244547,280.9910511309326 L643.3883584640307,288.34102639989715 M643.3883584640307,288.34102639989715 L638.8322296024326,295.41944799155334 M638.8322296024326,295.41944799155334 L632.7559558342944,302.1143166208497 M632.7559558342944,302.1143166208497 L625.2534914227087,308.3194439486363 M625.2534914227087,308.3194439486363 L616.4417306758282,313.93615784884094 M616.4417306758282,313.93615784884094 L606.4587255557274,318.87491572278924 M606.4587255557274,318.87491572278924 L595.4614699020542,323.0568618628478 M595.4614699020542,323.0568618628478 L583.6234919505323,326.4150839505408 M583.6234919505323,326.4150839505408 L571.132014772393,328.89578697624165 M571.132014772393,328.89578697624165 L558.1849916567714,330.4591735490904 M558.1849916567714,330.4591735490904 L544.9877989074544,331.08015642933265 M544.9877989074544,331.08015642933265 L531.7499458644961,330.7487600425802 M531.7499458644961,330.7487600425802 L518.6815845858416,329.47031151764133 M518.6815845858416,329.47031151764133 L505.99010539252987,327.26532878092564 M505.99010539252987,327.26532878092564 L493.87670122359066,324.16918861913825 M493.87670122359066,324.16918861913825 L482.5330799012024,320.23151617505425 M482.5330799012024,320.23151617505425 L472.138409985449,315.515329880248 M472.138409985449,315.515329880248 L462.8563514058695,310.09600084090357 M462.8563514058695,310.09600084090357 L454.83252474078887,304.05995837880073 M454.83252474078887,304.05995837880073 L448.1922114057363,297.5032502069716 M448.1922114057363,297.5032502069716 L443.03840965599267,290.52997088072806 M443.03840965599267,290.52997088072806 L439.45032239132195,283.2505328263497 M439.45032239132195,283.2505328263497 L437.48219372033816,275.77988556806156 M437.48219372033816,275.77988556806156 L437.16260761971466,268.23566687585674 M437.16260761971466,268.23566687585674 L438.49418105374167,260.7363219841514 M438.49418105374167,260.7363219841514 L441.45365116075993,253.39925125002472 M441.45365116075993,253.39925125002472 L445.9238914499888,246.42813132260056 M445.9238914499888,246.42813132260056 L451.86276444138804,239.83244616405406 M451.86276444138804,239.83244616405406 L459.17813855737654,233.7119610598789 M459.17813855737654,233.7119610598789 L467.75732251002154,228.1590255144243 M467.75732251002154,228.1590255144243 L477.4688464082387,223.25725632381995 M477.4688464082387,223.25725632381995 L488.16451730920573,219.0802790825014 M488.16451730920573,219.0802790825014 L499.6815905688546,215.69076735582868 M499.6815905688546,215.69076735582868 L511.84535147084864,213.13945035720607 M511.84535147084864,213.13945035720607 L524.3742635137139,211.47386633040117 M524.3742635137139,211.47386633040117 L537.1719165325476,210.69592958290136 M537.1719165325476,210.69592958290136 L550.047778195327,210.8170613211577 M550.047778195327,210.8170613211577 L562.3076358815435,211.77805831505552 M562.3076358815435,211.77805831505552 L574.2945379438479,213.55349508929535 M574.2945379438479,213.55349508929535 L585.8437636569502,216.11927378220486 M585.8437636569502,216.11927378220486 L596.7963589703309,219.44053845761803 M596.7963589703309,219.44053845761803 L607.0013958891991,223.47208689270673 M607.0013958891991,223.47208689270673 L616.3178010666838,228.1590255144243 M615.8485598095626,297.05085063912594 L615.4538409115323,301.0873278307539 M615.4538409115323,301.0873278307539 L614.3416577856817,305.34645056903554 M614.3416577856817,305.34645056903554 L612.5678304740393,309.6150512033586 M612.5678304740393,309.6150512033586 L610.2211758260203,313.6795698061386 M610.2211758260203,313.6795698061386 L607.4191083833305,317.3366578518136 M607.4191083833305,317.3366578518136 L604.3017597592745,320.4032860428302 M604.3017597592745,320.4032860428302 L601.0250981523075,322.72583937354085 M601.0250981523075,322.72583937354085 L592.1420621235065,318.32407881091507 M592.1420621235065,318.32407881091507 L582.2910785213228,314.6717696184563 M582.2910785213228,314.6717696184563 L571.6629851668872,311.8389074476694 M571.6629851668872,311.8389074476694 L560.4632791789525,309.8797219587592 M560.4632791789525,309.8797219587592 L548.9082405062873,308.8316412571375 M548.9082405062873,308.8316412571375 L537.2207430182241,308.7147281503303 M537.2207430182241,308.7147281503303 L525.6261819601375,309.5311912078591 M525.6261819601375,309.5311912078591 L514.3482189148222,311.2654503230546 M514.3482189148222,311.2654503230546 L503.6045331510458,313.8843322176505 M503.6045331510458,313.8843322176505 L493.60277000515447,317.3377478798361 M493.60277000515447,317.3377478798361 L484.5366753961692,321.5595229194852 M484.5366753961692,321.5595229194852 L476.5822318169095,326.46867584354743 M476.5822318169095,326.46867584354743 L469.89443055704066,331.970860808573 M469.89443055704066,331.970860808573 L464.60414611633627,337.96012006629593 M464.60414611633627,337.96012006629593 L460.8155994444379,344.32087124515726 M460.8155994444379,344.32087124515726 L458.60417742406275,350.9300408670184 M458.60417742406275,350.9300408670184 L458.01488440378495,357.65946574007376 M458.01488440378495,357.65946574007376 L459.06127904243397,364.37829506413203 M459.06127904243397,364.37829506413203 L461.7250821604907,370.95554661203556 M461.7250821604907,370.95554661203556 L465.95632992757845,377.2626848996122 M465.95632992757845,377.2626848996122 L471.67426429249963,383.17612521055537 M471.67426429249963,383.17612521055537 L478.7686756037733,388.5797607570094 M478.7686756037733,388.5797607570094 L487.1020977306548,393.3672339384578 M487.1020977306548,393.3672339384578 L496.5123236586915,397.4441412783894 M496.5123236586915,397.4441412783894 L506.8155777244983,400.72997488595286 M506.8155777244983,400.72997488595286 L517.8102293933148,403.15972421058575 M517.8102293933148,403.15972421058575 L529.2806693170994,404.6852920839893 M529.2806693170994,404.6852920839893 L541.0017451007159,405.2764408925277 M541.0017451007159,405.2764408925277 L552.7432194893859,404.921457037158 M552.7432194893859,404.921457037158 L564.2744484647053,403.627377398255 M564.2744484647053,403.627377398255 L575.369036679486,401.41984229992147 M575.369036679486,401.41984229992147 L585.8093671300478,398.34257872297695 M585.8093671300478,398.34257872297695 L595.390998276448,394.45647052534474 M595.390998276448,394.45647052534474 L603.92673091803,389.8382985593338 M603.92673091803,389.8382985593338 L611.2502926199688,384.57917331864894 M611.2502926199688,384.57917331864894 L617.2196288509872,378.7826274185321 M617.2196288509872,378.7826274185321 L621.7195213192251,372.56258187751126 M621.7195213192251,372.56258187751126 L624.6638946919411,366.0409586451144 M624.6638946919411,366.0409586451144 L625.9972750528318,359.34529813698816 M625.9972750528318,359.34529813698816 L625.6957723839887,352.60620519043476 M625.6957723839887,352.60620519043476 L623.7673365367943,345.95481342794164 M623.7673365367943,345.95481342794164 L620.2515455353368,339.52017576200166 M620.2515455353368,339.52017576200166 L615.2185164126736,333.42687987289554 M615.2185164126736,333.42687987289554 L608.7675606981927,327.79258559192897 M608.7675606981927,327.79258559192897 L601.0250981523075,322.72583937354085 M580.0281839264524,210.4739070675798 L589.26729215869,213.5546035362779 M589.26729215869,213.5546035362779 L597.7586762840308,217.27613925343732 M597.7586762840308,217.27613925343732 L605.3658865171724,221.5794500308597 M605.3658865171724,221.5794500308597 L611.9663557208946,226.39610333637359 M611.9663557208946,226.39610333637359 L617.4533865339822,231.64935049327687 M550.047778195327,210.8170613211577 L550.3142045516088,208.40191333329656 M550.3142045516088,208.40191333329656 L550.7460991543544,207.04565688498826 M550.7460991543544,207.04565688498826 L551.4744638716761,205.70312818823152 M551.4744638716761,205.70312818823152 L552.7658406945557,204.30698586537233 M552.7658406945557,204.30698586537233 L554.5573930042201,203.24933592642117 M554.5573930042201,203.24933592642117 L556.6064781877237,202.6758603680504 M556.6064781877237,202.6758603680504 L559.6040068671969,202.54311432727883 M559.6040068671969,202.54311432727883 L564.4283840468458,203.39365282508606 M564.4283840468458,203.39365282508606 L570.9620331013646,205.803063769301 M570.9620331013646,205.803063769301 L575.486964761265,208.00011966304427 M575.486964761265,208.00011966304427 L580.0281839264524,210.4739070675798 M647.3660429625327,265.94238741291514 L647.1298430247241,263.2333895178931 M647.1298430247241,263.2333895178931 L646.7149266843724,261.3918898953931 M646.7149266843724,261.3918898953931 L646.0034249161733,259.227875106494 M646.0034249161733,259.227875106494 L644.7298059701911,256.3721684341516 M644.7298059701911,256.3721684341516 L642.9522784650524,253.28715505667645 M642.9522784650524,253.28715505667645 L640.9118514399945,250.39334814645818 M640.9118514399945,250.39334814645818 L637.9192524057153,246.86487461526755 M637.9192524057153,246.86487461526755 L633.0922672057368,242.24857102468798 M633.0922672057368,242.24857102468798 L626.5448308788759,237.25314015410186 M626.5448308788759,237.25314015410186 L622.0074392470008,234.3218956134904 M622.0074392470008,234.3218956134904 L617.4533865339822,231.64935049327687 M647.3660429625327,265.94238741291514 L550.047778195327,210.8170613211577 M511.84535147084864,213.13945035720607 L441.45365116075993,253.39925125002472 M500.86274355780887,294.51424451071205 L508.33333219039224,298.1263111276524 M508.33333219039224,298.1263111276524 L516.7387419524075,300.9883490670993 M516.7387419524075,300.9883490670993 L525.8488435643974,303.0214345327293 M525.8488435643974,303.0214345327293 L535.4138947899437,304.1694259579002 M535.4138947899437,304.1694259579002 L545.1713793918186,304.4006228105559 M545.1713793918186,304.4006228105559 L554.8534319674411,303.70863145125765 M554.8534319674411,303.70863145125765 L564.1942627464841,302.1125794115278 M564.1942627464841,302.1125794115278 L572.9376637352343,299.6565307971889 M572.9376637352343,299.6565307971889 L580.8440750873503,296.4082659107433 M580.8440750873503,296.4082659107433 L587.6972983792973,292.45731410913044 M587.6972983792973,292.45731410913044 L593.310384942115,287.91244661486985 M593.310384942115,287.91244661486985 L597.5308002838767,282.89856362019333 M597.5308002838767,282.89856362019333 L600.2445144898511,277.55319317454513 M600.2445144898511,277.55319317454513 L601.3789413561608,272.02268332647515 M601.3789413561608,272.02268332647515 L600.9048024814779,266.45813325630013 M600.9048024814779,266.45813325630013 L598.8367399124729,261.0112427919012 M598.8367399124729,261.0112427919012 L595.2327454767208,255.83018511151812 M595.2327454767208,255.83018511151812 L590.1923708144936,251.05562045006982 M590.1923708144936,251.05562045006982 L583.8538951043711,246.8169313358177 M583.8538951043711,246.8169313358177 L576.3904947259646,243.22876069309575 M576.3904947259646,243.22876069309575 L568.005452002772,240.38803390117903 M568.005452002772,240.38803390117903 L558.9266612219135,238.3713625578334 M558.9266612219135,238.3713625578334 L549.400515476736,237.23309695422338 M549.400515476736,237.23309695422338 L539.6852793924968,237.00390084636103 M539.6852793924968,237.00390084636103 L530.0442499716812,237.68994373245053 M530.0442499716812,237.68994373245053 L520.7387613815351,239.2727499665968 M520.7387613815351,239.2727499665968 L512.0212285730851,241.7096743711518 M512.0212285730851,241.7096743711518 L504.1283690324969,244.9350241653307 M504.1283690324969,244.9350241653307 L497.2749261288035,248.86174792515357 M497.2749261288035,248.86174792515357 L491.6478723612565,253.38369999688365 M491.6478723612565,253.38369999688365 L487.4012423392436,258.3784686358518 M487.4012423392436,258.3784686358518 L484.6519459012584,263.71058198713763 M484.6519459012584,263.71058198713763 L483.47638828106903,269.23514504524735 M483.47638828106903,269.23514504524735 L483.90831508873356,274.8016958361086 M483.90831508873356,274.8016958361086 L485.93764866604465,280.2583250341298 M485.93764866604465,280.2583250341298 L489.51062962981973,285.4557869603217 M489.51062962981973,285.4557869603217 L494.5310232539731,290.2516562298838 M494.5310232539731,290.2516562298838 L500.86274355780887,294.51424451071205 M441.45365116075993,253.39925125002472 L441.6029435300409,251.6424830021722 M441.6029435300409,251.6424830021722 L442.03094175301527,249.7897842306468 M442.03094175301527,249.7897842306468 L442.68037291523245,247.95363067769287 M442.68037291523245,247.95363067769287 L443.79437614214885,245.60132085267952 M443.79437614214885,245.60132085267952 L445.3106212983123,243.06901470247587 M445.3106212983123,243.06901470247587 L447.6144819891416,239.92663211586756 M447.6144819891416,239.92663211586756 L451.4168094793185,235.7015654059027 M451.4168094793185,235.7015654059027 L457.48515682080455,230.25855985231567 M457.48515682080455,230.25855985231567 L465.3675493096909,224.45588364736295 M465.3675493096909,224.45588364736295 L470.68592654302586,221.01361964164104 M470.68592654302586,221.01361964164104 L476.01343275972073,217.82572631629176 M476.01343275972073,217.82572631629176 L481.99613462395854,214.51548448953713 M481.99613462395854,214.51548448953713 L487.9625903265739,211.53276768996196 M487.9625903265739,211.53276768996196 L492.25733979264334,209.65013019217605 M492.25733979264334,209.65013019217605 L496.50771757471836,208.09862319143838 M496.50771757471836,208.09862319143838 L502.5097763484737,206.73816879234232 M502.5097763484737,206.73816879234232 L506.74867561139536,206.83963418225898 M506.74867561139536,206.83963418225898 L509.32512592710697,207.8558237615784 M509.32512592710697,207.8558237615784 L510.82021844425765,209.33561458749904 M510.82021844425765,209.33561458749904 L511.5531462052519,210.92342296232997 M511.5531462052519,210.92342296232997 L511.77331526970994,211.97672960509183 M511.77331526970994,211.97672960509183 L511.84535147084864,213.13945035720607 M500.59173950779586,380.7687245177443 L508.04170054843144,384.3909197693468 M508.04170054843144,384.3909197693468 L516.423914445239,387.26097987649143 M516.423914445239,387.26097987649143 L525.5088892636477,389.2997622177817 M525.5088892636477,389.2997622177817 L535.0475750895944,390.4509697599429 M535.0475750895944,390.4509697599429 L544.7781836439301,390.68281425756084 M544.7781836439301,390.68281425756084 L554.4335920584874,389.9888843863143 M554.4335920584874,389.9888843863143 L563.7487465757324,388.3883605906197 M563.7487465757324,388.3883605906197 L572.4681474110885,385.92542894131935 M572.4681474110885,385.92542894131935 L580.3528951609867,382.668057543608 M580.3528951609867,382.668057543608 L587.1873852615886,378.7060241766358 M587.1873852615886,378.7060241766358 L592.7851799877205,374.14840242779695 M592.7851799877205,374.14840242779695 L596.9941587728481,369.1204404363157 M596.9941587728481,369.1204404363157 L599.7005976917283,363.7600503036107 M599.7005976917283,363.7600503036107 L600.8321010443967,358.21398983061675 M600.8321010443967,358.21398983061675 L600.3594610076698,352.63378241413017 M600.3594610076698,352.63378241413017 L598.2972693659335,347.1715549765582 M598.2972693659335,347.1715549765582 L594.703349192378,341.9758990189165 M594.703349192378,341.9758990189165 L589.6769705146617,337.18787295018353 M589.6769705146617,337.18787295018353 L583.3560264060632,332.9372264645768 M583.3560264060632,332.9372264645768 L575.9132135702309,329.33892856042 M575.9132135702309,329.33892856042 L567.5512544226485,326.4901808382653 M567.5512544226485,326.4901808382653 L558.4974181507635,324.4678135787911 M558.4974181507635,324.4678135787911 L548.9974240748813,323.32633240083055 M548.9974240748813,323.32633240083055 L539.3088321208227,323.09648876331437 M539.3088321208227,323.09648876331437 L529.6942218616873,323.7844698162827 M529.6942218616873,323.7844698162827 L520.4142158620498,325.37174705861503 M520.4142158620498,325.37174705861503 L511.7205417503348,327.8155533823318 M511.7205417503348,327.8155533823318 L503.84927200602374,331.0500083672787 M503.84927200602374,331.0500083672787 L497.01456409936696,334.9878122955093 M497.01456409936696,334.9878122955093 L491.4028793898072,339.52251729979804 M491.4028793898072,339.52251729979804 L487.16783022978433,344.53136384659365 M487.16783022978433,344.53136384659365 L484.426004723351,349.87849610459836 M484.426004723351,349.87849610459836 L483.2535965002791,355.418609446839 M483.2535965002791,355.418609446839 L483.6842560871521,361.00081769942165 M483.6842560871521,361.00081769942165 L485.7079310162241,366.4727844502726 M485.7079310162241,366.4727844502726 L489.27100755778673,371.6848455864481 M489.27100755778673,371.6848455864481 L494.2775143140244,376.4941774829941 M494.2775143140244,376.4941774829941 L500.59173950779586,380.7687245177443 M617.4533865339822,231.64935049327687 L580.0281839264524,210.4739070675798 M500.86274355780887,294.51424451071205 L500.59173950779586,380.7687245177443" stroke="black"  stroke-width="4"  fill="red"/>
<path d="M583.8538951043711,246.8169313358177 L590.1923708144936,251.05562045006982 M590.1923708144936,251.05562045006982 L595.2327454767208,255.83018511151812 M595.2327454767208,255.83018511151812 L598.8367399124729,261.0112427919012 M598.8367399124729,261.0112427919012 L600.9048024814779,266.45813325630013 M600.9048024814779,266.45813325630013 L601.3789413561608,272.02268332647515 M601.3789413561608,272.02268332647515 L600.2445144898511,277.55319317454513 M600.2445144898511,277.55319317454513 L597.5308002838767,282.89856362019333 M597.5308002838767,282.89856362019333 L593.310384942115,287.91244661486985 M593.310384942115,287.91244661486985 L587.6972983792973,292.45731410913044 M587.6972983792973,292.45731410913044 L580.8440750873503,296.4082659107433 M580.8440750873503,296.4082659107433 L572.9376637352343,299.6565307971889 M572.9376637352343,299.6565307971889 L564.1942627464841,302.1125794115278 M564.1942627464841,302.1125794115278 L554.8534319674411,303.70863145125765 M554.8534319674411,303.70863145125765 L545.1713793918186,304.4006228105559 M545.1713793918186,304.4006228105559 L535.4138947899437,304.1694259579002 M535.4138947899437,304.1694259579002 L525.8488435643974,303.0214345327293 M525.8488435643974,303.0214345327293 L516.7387419524075,300.9883490670993 M516.7387419524075,300.9883490670993 L508.33333219039224,298.1263111276524 M508.33333219039224,298.1263111276524 L500.86274355780887,294.51424451071205 M500.86274355780887,294.51424451071205 L494.5310232539731,290.2516562298838 M494.5310232539731,290.2516562298838 L489.51062962981973,285.4557869603217 M489.51062962981973,285.4557869603217 L485.93764866604465,280.2583250341298 M485.93764866604465,280.2583250341298 L483.90831508873356,274.8016958361086 M483.90831508873356,274.8016958361086 L483.47638828106903,269.23514504524735 M483.47638828106903,269.23514504524735 L484.6519459012584,263.71058198713763 M484.6519459012584,263.71058198713763 L487.4012423392436,258.3784686358518 M487.4012423392436,258.3784686358518 L491.6478723612565,253.38369999688365 M491.6478723612565,253.38369999688365 L497.2749261288035,248.86174792515357 M497.2749261288035,248.86174792515357 L504.1283690324969,244.9350241653307 M504.1283690324969,244.9350241653307 L512.0212285730851,241.7096743711518 M512.0212285730851,241.7096743711518 L520.7387613815351,239.2727499665968 M520.7387613815351,239.2727499665968 L530.0442499716812,237.68994373245053 M530.0442499716812,237.68994373245053 L539.6852793924968,237.00390084636103 M539.6852793924968,237.00390084636103 L549.400515476736,237.23309695422338 M549.400515476736,237.23309695422338 L558.9266612219135,238.3713625578334 M558.9266612219135,238.3713625578334 L568.005452002772,240.38803390117903 M568.005452002772,240.38803390117903 L576.3904947259646,243.22876069309575 M576.3904947259646,243.22876069309575 L583.8538951043711,246.8169313358177 M583.8538951043711,246.8169313358177 L583.2567803193785,350.10460875776613 M583.2567803193785,350.10460875776613 L575.8180713703737,346.5043051996596 M575.8180713703737,346.5043051996596 L567.4607136950301,343.6539689656122 M567.4607136950301,343.6539689656122 L558.4118518721214,341.630473650193 M558.4118518721214,341.630473650193 L548.9170709092766,340.488355637903 M548.9170709092766,340.488355637903 L539.2337902536394,340.25838375907716 M539.2337902536394,340.25838375907716 L529.6244464613208,340.9467486600843 M529.6244464613208,340.9467486600843 L520.349520241127,342.5349113706934 M520.349520241127,342.5349113706934 L511.66060220588065,344.9800806321431 M511.66060220588065,344.9800806321431 L503.7936362552883,348.2163388588523 M503.7936362552883,348.2163388588523 L496.9626630632826,352.156337154376 M496.9626630632826,352.156337154376 L491.3540420965252,356.6935677944435 M491.3540420965252,356.6935677944435 L487.1213015337278,361.7052023631366 M487.1213015337278,361.7052023631366 L484.3809653444382,367.055308981362 M484.3809653444382,367.055308981362 L483.20918497819184,372.5985018973352 M483.20918497819184,372.5985018973352 L483.63959200910097,378.18381092741004 M483.63959200910097,378.18381092741004 L485.6621389925561,383.65881508042366 M485.6621389925561,383.65881508042366 L489.22324123490387,388.8737673801577 M489.22324123490387,388.8737673801577 L494.2269798311474,393.6857653395158 M494.2269798311474,393.6857653395158 L500.5377175980354,397.9626806049641 M500.5377175980354,397.9626806049641 L507.9835667821263,401.5868816528363 M507.9835667821263,401.5868816528363 L516.3611568602396,404.4585304013542 M516.3611568602396,404.4585304013542 L525.4411229433911,406.4984408996021 M525.4411229433911,406.4984408996021 L534.9745531216454,407.6502853307635 M534.9745531216454,407.6502853307635 L544.6998042232842,407.88225808167346 M544.6998042232842,407.88225808167346 L554.349901393316,407.1879443263141 M554.349901393316,407.1879443263141 L563.6599375879041,405.58653498613626 M563.6599375879041,405.58653498613626 L572.374554194746,403.1222402818442 M572.374554194746,403.1222402818442 L580.2549834621,399.8630655051645 M580.2549834621,399.8630655051645 L587.0857392068115,395.89883762567314 M587.0857392068115,395.89883762567314 L592.6804855575417,391.3386901035474 M592.6804855575417,391.3386901035474 L596.8871844634784,386.30793997822053 M596.8871844634784,386.30793997822053 L599.5921730004634,380.9445754026393 M599.5921730004634,380.9445754026393 L600.7230934496702,375.39543532068507 M600.7230934496702,375.39543532068507 L600.2507520635397,369.8121271387091 M600.2507520635397,369.8121271387091 L598.1897306137316,364.34686236097696 M598.1897306137316,364.34686236097696 L594.5978185399656,359.1483153354817 M594.5978185399656,359.1483153354817 L589.5742297382756,354.35762332990066 M589.5742297382756,354.35762332990066 L583.2567803193785,350.10460875776613" stroke="black"  stroke-width="4"  fill="red"/>
<path d="M532.8944255548654,201.10065135295406 L533.0377732191994,166.5720469499301 M43.01011796651062,481.2848861013909 L42.608171211138085,446.4401738614127 M532.8944255548654,201.10065135295406 L43.01011796651062,481.2848861013909 M533.0377732191994,166.5720469499301 L42.608171211138085,446.4401738614127 M268.3876874025604,613.6608345211275 L268.23654480776844,578.670668419904 M43.01011796651062,481.2848861013909 L268.3876874025604,613.6608345211275 M42.608171211138085,446.4401738614127 L268.23654480776844,578.670668419904 M758.2725237276175,328.7646739846003 L758.666677910564,294.09064870396975 M268.3876874025604,613.6608345211275 L758.2725237276175,328.7646739846003 M268.23654480776844,578.670668419904 L758.666677910564,294.09064870396975 M758.2725237276175,328.7646739846003 L532.8944255548654,201.10065135295406 M758.666677910564,294.09064870396975 L533.0377732191994,166.5720469499301" stroke="black"  stroke-width="4"  fill="red"/></svg>